# Blender v2.79 (sub 0) OBJ File: 'missile2.blend'
# www.blender.org
mtllib missile.mtl
o missile_CUBezierCircle.001
v -0.020644 -0.592057 0.966023
v -0.020644 -0.592057 1.243669
v 0.019356 -0.592057 0.966023
v 0.019356 -0.592057 1.243669
v 0.592057 -0.020644 0.966023
v 0.592057 -0.020644 1.243669
v 0.592057 0.019356 0.966023
v 0.592057 0.019356 1.243669
v 0.020644 0.592057 0.966023
v 0.020644 0.592057 1.243669
v -0.019356 0.592057 0.966023
v -0.019356 0.592057 1.243669
v -0.592057 0.020644 0.966023
v -0.592057 0.020644 1.243669
v -0.592057 -0.019356 0.966023
v -0.592057 -0.019356 1.243669
v -0.000000 -0.000000 -1.356332
v -0.349281 -0.000000 -0.713661
v -0.313516 -0.000000 -0.898797
v -0.201136 -0.000000 -1.103433
v -0.079491 -0.000000 -1.273850
v -0.322050 -0.134813 1.286340
v -0.322051 0.134813 -0.713661
v -0.289073 0.121015 -0.898797
v -0.185451 0.077656 -1.103433
v -0.073286 0.030723 -1.273850
v -0.246642 -0.246642 1.286340
v -0.246642 0.246642 -0.713661
v -0.221389 0.221389 -0.898797
v -0.142038 0.142037 -1.103433
v -0.056144 0.056144 -1.273850
v -0.134813 -0.322051 1.286340
v -0.134814 0.322051 -0.713661
v -0.121015 0.289073 -0.898797
v -0.077656 0.185451 -1.103433
v -0.030723 0.073286 -1.273850
v 0.000000 -0.349281 1.286340
v -0.000000 0.349281 -0.713661
v -0.000000 0.313516 -0.898797
v -0.000000 0.201136 -1.103433
v -0.000000 0.079491 -1.273850
v 0.134814 -0.322051 1.286340
v 0.134813 0.322051 -0.713661
v 0.121015 0.289073 -0.898797
v 0.077656 0.185451 -1.103433
v 0.030723 0.073286 -1.273850
v 0.246642 -0.246642 1.286340
v 0.246642 0.246642 -0.713661
v 0.221389 0.221389 -0.898797
v 0.142037 0.142037 -1.103433
v 0.056144 0.056144 -1.273850
v 0.322051 -0.134813 1.286340
v 0.322051 0.134813 -0.713661
v 0.289073 0.121015 -0.898797
v 0.185451 0.077656 -1.103433
v 0.073286 0.030723 -1.273850
v 0.349281 0.000000 1.286340
v 0.349281 0.000000 -0.713661
v 0.313516 0.000000 -0.898797
v 0.201136 0.000000 -1.103433
v 0.079491 0.000000 -1.273850
v 0.322051 0.134813 1.286340
v 0.322051 -0.134813 -0.713661
v 0.289073 -0.121015 -0.898797
v 0.185451 -0.077656 -1.103433
v 0.073286 -0.030723 -1.273850
v 0.246642 0.246642 1.286340
v 0.246642 -0.246642 -0.713661
v 0.221389 -0.221389 -0.898797
v 0.142037 -0.142037 -1.103433
v 0.056144 -0.056144 -1.273850
v 0.134814 0.322051 1.286340
v 0.134813 -0.322051 -0.713661
v 0.121015 -0.289073 -0.898797
v 0.077656 -0.185451 -1.103433
v 0.030723 -0.073286 -1.273850
v 0.000000 0.349281 1.286340
v -0.000000 -0.349281 -0.713661
v -0.000000 -0.313516 -0.898797
v -0.000000 -0.201136 -1.103433
v -0.000000 -0.079491 -1.273850
v -0.134813 0.322051 1.286340
v -0.134813 -0.322051 -0.713661
v -0.121015 -0.289073 -0.898797
v -0.077656 -0.185451 -1.103433
v -0.030723 -0.073286 -1.273850
v -0.246642 0.246642 1.286340
v -0.246642 -0.246642 -0.713661
v -0.221389 -0.221389 -0.898797
v -0.142037 -0.142037 -1.103433
v -0.056144 -0.056144 -1.273850
v -0.322050 0.134813 1.286340
v -0.322051 -0.134813 -0.713661
v -0.289073 -0.121015 -0.898797
v -0.185451 -0.077656 -1.103433
v -0.073286 -0.030723 -1.273850
v -0.349281 -0.000000 1.286340
v -0.123321 -0.123321 1.195107
v -0.161025 -0.067407 1.195107
v 0.000000 0.174640 1.195107
v 0.067407 0.161025 1.195107
v 0.067407 -0.161025 1.195107
v 0.000000 -0.174640 1.195107
v 0.161025 0.067407 1.195107
v 0.161025 -0.067407 1.195107
v 0.123321 -0.123321 1.195107
v 0.123321 0.123321 1.195107
v -0.123321 0.123321 1.195107
v -0.067407 0.161025 1.195107
v -0.067407 -0.161025 1.195107
v -0.161025 0.067407 1.195107
v 0.174640 0.000000 1.195107
v -0.174640 -0.000000 1.195107
v -0.261960 -0.000000 1.286340
v -0.241538 -0.101110 1.286340
v 0.101110 0.241538 1.286340
v 0.000000 0.261960 1.286340
v 0.184982 0.184982 1.286340
v 0.000000 -0.261960 1.286340
v 0.101110 -0.241538 1.286340
v -0.184981 -0.184982 1.286340
v -0.101110 -0.241538 1.286340
v 0.261961 0.000000 1.286340
v 0.241538 0.101110 1.286340
v -0.184982 0.184982 1.286340
v -0.241538 0.101110 1.286340
v 0.241538 -0.101110 1.286340
v 0.184982 -0.184982 1.286340
v -0.101110 0.241538 1.286340
v -0.123321 -0.123321 1.356332
v -0.161025 -0.067407 1.356332
v 0.000000 0.174640 1.356332
v 0.067407 0.161025 1.356332
v 0.067407 -0.161025 1.356332
v 0.000000 -0.174640 1.356332
v -0.241538 -0.101110 1.356332
v 0.000000 0.261960 1.356332
v 0.184982 0.184982 1.356332
v 0.123321 0.123321 1.356332
v 0.101110 -0.241538 1.356332
v -0.101110 -0.241538 1.356332
v -0.067407 -0.161025 1.356332
v 0.241538 0.101110 1.356332
v 0.161025 0.067407 1.356332
v -0.241538 0.101110 1.356332
v -0.161025 0.067407 1.356332
v 0.174640 0.000000 1.356332
v 0.161025 -0.067407 1.356332
v -0.123321 0.123321 1.356332
v -0.174640 -0.000000 1.356332
v 0.123321 -0.123321 1.356332
v -0.067407 0.161025 1.356332
v 0.241538 -0.101110 1.356332
v -0.261960 -0.000000 1.356332
v 0.101110 0.241538 1.356332
v 0.000000 -0.261960 1.356332
v -0.184981 -0.184982 1.356332
v 0.261961 0.000000 1.356332
v -0.184982 0.184982 1.356332
v 0.184982 -0.184982 1.356332
v -0.101110 0.241538 1.356332
v -0.345111 0.020644 -0.649527
v -0.349281 -0.000000 -0.649527
v -0.345371 -0.019356 -0.649527
v 0.349281 0.000000 -0.649527
v 0.345371 0.019356 -0.649527
v 0.345111 -0.020644 -0.649527
v -0.000000 0.349281 -0.649527
v 0.020644 0.345111 -0.649527
v 0.019356 -0.345371 -0.649527
v -0.000000 -0.349281 -0.649527
v -0.020644 -0.345111 -0.649527
v -0.019356 0.345371 -0.649527
v 0.345371 0.019356 1.243669
v 0.349281 0.000000 1.243669
v 0.345111 -0.020644 1.243669
v -0.345111 0.020644 1.243669
v -0.345371 -0.019356 1.243669
v 0.019356 -0.345371 1.243669
v -0.019356 0.345371 1.243669
v 0.000000 0.349281 1.243669
v 0.020644 0.345111 1.243669
v -0.020644 -0.345111 1.243669
v -0.349281 -0.000000 1.243669
v 0.000000 -0.349281 1.243669
v 0.019356 -0.345371 1.243669
v 0.019356 -0.345371 1.243669
v 0.019356 -0.592057 1.243669
v 0.019356 -0.592057 1.243669
v 0.019356 -0.592057 0.966023
v -0.020644 -0.592057 1.243669
v -0.020644 -0.592057 1.243669
v -0.020644 -0.592057 0.966023
v -0.020644 -0.345111 -0.649527
v -0.020644 -0.345111 -0.649527
v 0.345371 0.019356 1.243669
v 0.345371 0.019356 1.243669
v 0.592057 0.019356 1.243669
v 0.592057 0.019356 1.243669
v 0.592057 0.019356 0.966023
v 0.592057 -0.020644 1.243669
v 0.592057 -0.020644 1.243669
v 0.592057 -0.020644 0.966023
v 0.345111 -0.020644 -0.649527
v 0.345111 -0.020644 -0.649527
v -0.019356 0.345371 1.243669
v -0.019356 0.345371 1.243669
v -0.019356 0.592057 1.243669
v -0.019356 0.592057 1.243669
v -0.019356 0.592057 0.966023
v 0.020644 0.592057 1.243669
v 0.020644 0.592057 1.243669
v 0.020644 0.592057 0.966023
v 0.020644 0.345111 -0.649527
v 0.020644 0.345111 -0.649527
v -0.345371 -0.019356 1.243669
v -0.345371 -0.019356 1.243669
v -0.592057 -0.019356 1.243669
v -0.592057 -0.019356 1.243669
v -0.592057 -0.019356 0.966023
v -0.592057 0.020644 1.243669
v -0.592057 0.020644 1.243669
v -0.592057 0.020644 0.966023
v -0.345111 0.020644 -0.649527
v -0.345111 0.020644 -0.649527
v 0.134814 -0.322051 1.286340
v 0.000000 -0.349281 1.286340
v 0.000000 0.349281 1.286340
v 0.134814 0.322051 1.286340
v -0.246642 -0.246642 1.286340
v -0.322050 -0.134813 1.286340
v 0.349281 0.000000 1.286340
v 0.322051 -0.134813 1.286340
v -0.322050 0.134813 1.286340
v -0.246642 0.246642 1.286340
v 0.246642 0.246642 1.286340
v 0.322051 0.134813 1.286340
v -0.349281 -0.000000 1.286340
v 0.246642 -0.246642 1.286340
v -0.134813 0.322051 1.286340
v -0.134813 -0.322051 1.286340
v -0.123321 -0.123321 1.195107
v -0.161025 -0.067407 1.195107
v 0.000000 0.174640 1.195107
v 0.067407 0.161025 1.195107
v 0.067407 -0.161025 1.195107
v 0.000000 -0.174640 1.195107
v 0.174640 0.000000 1.195107
v 0.161025 -0.067407 1.195107
v -0.161025 0.067407 1.195107
v -0.123321 0.123321 1.195107
v 0.123321 0.123321 1.195107
v 0.161025 0.067407 1.195107
v -0.174640 -0.000000 1.195107
v 0.123321 -0.123321 1.195107
v -0.067407 0.161025 1.195107
v -0.067407 -0.161025 1.195107
v 0.184982 -0.184982 1.286340
v 0.101110 -0.241538 1.286340
v -0.101110 0.241538 1.286340
v 0.000000 0.261960 1.286340
v -0.241538 0.101110 1.286340
v -0.184982 0.184982 1.286340
v 0.241538 0.101110 1.286340
v 0.261961 0.000000 1.286340
v -0.101110 -0.241538 1.286340
v -0.184981 -0.184982 1.286340
v 0.000000 -0.261960 1.286340
v 0.184982 0.184982 1.286340
v 0.101110 0.241538 1.286340
v -0.241538 -0.101110 1.286340
v -0.261960 -0.000000 1.286340
v 0.241538 -0.101110 1.286340
v -0.123321 -0.123321 1.356332
v -0.161025 -0.067407 1.356332
v 0.000000 0.174640 1.356332
v 0.067407 0.161025 1.356332
v 0.067407 -0.161025 1.356332
v 0.000000 -0.174640 1.356332
v 0.174640 0.000000 1.356332
v 0.161025 -0.067407 1.356332
v -0.161025 0.067407 1.356332
v -0.123321 0.123321 1.356332
v 0.123321 0.123321 1.356332
v 0.161025 0.067407 1.356332
v -0.174640 -0.000000 1.356332
v 0.123321 -0.123321 1.356332
v -0.067407 0.161025 1.356332
v -0.067407 -0.161025 1.356332
v 0.184982 -0.184982 1.356332
v 0.101110 -0.241538 1.356332
v -0.101110 0.241538 1.356332
v 0.000000 0.261960 1.356332
v -0.241538 0.101110 1.356332
v -0.184982 0.184982 1.356332
v 0.241538 0.101110 1.356332
v 0.261961 0.000000 1.356332
v -0.101110 -0.241538 1.356332
v -0.184981 -0.184982 1.356332
v 0.000000 -0.261960 1.356332
v 0.184982 0.184982 1.356332
v 0.101110 0.241538 1.356332
v -0.241538 -0.101110 1.356332
v -0.261960 -0.000000 1.356332
v 0.241538 -0.101110 1.356332
v -0.349281 -0.000000 -0.649527
v -0.345371 -0.019356 -0.649527
v -0.345371 -0.019356 -0.649527
v 0.345371 0.019356 -0.649527
v 0.345371 0.019356 -0.649527
v 0.349281 0.000000 -0.649527
v -0.019356 0.345371 -0.649527
v -0.019356 0.345371 -0.649527
v -0.000000 0.349281 -0.649527
v 0.019356 -0.345371 -0.649527
v 0.019356 -0.345371 -0.649527
v -0.000000 -0.349281 -0.649527
v 0.345111 -0.020644 1.243669
v 0.345111 -0.020644 1.243669
v 0.349281 0.000000 1.243669
v -0.345111 0.020644 1.243669
v -0.345111 0.020644 1.243669
v 0.000000 0.349281 1.243669
v 0.020644 0.345111 1.243669
v 0.020644 0.345111 1.243669
v -0.349281 -0.000000 1.243669
v -0.020644 -0.345111 1.243669
v -0.020644 -0.345111 1.243669
v 0.000000 -0.349281 1.243669
vn 0.0000 -1.0000 0.0000
vn -1.0000 -0.0000 0.0000
vn 0.0000 0.0000 1.0000
vn 1.0000 0.0000 0.0000
vn 0.0000 1.0000 0.0000
vn 0.9889 0.0000 -0.1486
vn -0.9889 0.0000 -0.1486
vn 0.0000 0.9889 -0.1486
vn 0.0000 -0.9889 -0.1486
vn 0.9694 -0.1958 -0.1482
vn 0.9694 0.1958 -0.1480
vn -0.9694 0.1958 -0.1482
vn -0.9694 -0.1958 -0.1480
vn 0.1958 0.9694 -0.1482
vn -0.1958 0.9694 -0.1480
vn -0.1958 -0.9694 -0.1482
vn 0.1958 -0.9694 -0.1480
vn -0.3843 0.9184 -0.0941
vn -0.3860 0.9225 0.0000
vn -0.1980 0.9802 0.0000
vn -0.1980 -0.9802 0.0000
vn -0.3860 -0.9225 0.0000
vn 0.3843 -0.9184 -0.0941
vn 0.3860 -0.9225 0.0000
vn 0.1980 -0.9802 0.0000
vn 0.7040 0.7040 -0.0941
vn 0.9225 0.3860 0.0000
vn 0.9184 0.3843 -0.0941
vn 0.9802 -0.1980 0.0000
vn 0.9225 -0.3860 0.0000
vn -0.7040 0.7040 -0.0941
vn -0.9802 0.1980 0.0000
vn -0.9225 0.3860 0.0000
vn -0.9184 -0.3843 -0.0941
vn -0.9225 -0.3860 0.0000
vn -0.9802 -0.1980 0.0000
vn 0.9184 -0.3843 -0.0941
vn 0.7071 -0.7071 0.0000
vn 0.7040 -0.7040 -0.0941
vn 0.3843 0.9184 -0.0941
vn 0.7071 0.7071 0.0000
vn 0.1980 0.9802 0.0000
vn 0.3860 0.9225 0.0000
vn -0.7040 -0.7040 -0.0941
vn -0.9184 0.3843 -0.0941
vn -0.7071 0.7071 0.0000
vn -0.9427 0.0000 -0.3335
vn -0.8697 0.3639 -0.3334
vn -0.8488 0.0000 -0.5288
vn -0.7830 0.3276 -0.5286
vn -0.7728 0.0000 -0.6346
vn -0.7129 0.2983 -0.6345
vn 0.0000 0.0000 -1.0000
vn -0.6666 0.6666 -0.3333
vn -0.6003 0.6003 -0.5283
vn -0.5466 0.5466 -0.6343
vn -0.3639 0.8697 -0.3334
vn -0.3276 0.7830 -0.5286
vn -0.2983 0.7129 -0.6345
vn 0.0000 0.9427 -0.3335
vn 0.0000 0.8488 -0.5288
vn 0.0000 0.7728 -0.6346
vn 0.3639 0.8697 -0.3334
vn 0.3276 0.7830 -0.5286
vn 0.2983 0.7129 -0.6345
vn 0.6666 0.6666 -0.3333
vn 0.6003 0.6003 -0.5283
vn 0.5466 0.5466 -0.6343
vn 0.8697 0.3639 -0.3334
vn 0.7830 0.3276 -0.5286
vn 0.7129 0.2983 -0.6345
vn 0.9427 0.0000 -0.3335
vn 0.8488 0.0000 -0.5288
vn 0.7728 0.0000 -0.6346
vn 0.8697 -0.3639 -0.3334
vn 0.7830 -0.3276 -0.5286
vn 0.7129 -0.2983 -0.6345
vn 0.6666 -0.6666 -0.3333
vn 0.6003 -0.6003 -0.5283
vn 0.5466 -0.5466 -0.6343
vn 0.3639 -0.8697 -0.3334
vn 0.3276 -0.7830 -0.5286
vn 0.2983 -0.7129 -0.6345
vn 0.0000 -0.9427 -0.3335
vn 0.0000 -0.8488 -0.5288
vn 0.0000 -0.7728 -0.6346
vn -0.3843 -0.9184 -0.0941
vn -0.3639 -0.8697 -0.3334
vn -0.3276 -0.7830 -0.5286
vn -0.2983 -0.7129 -0.6345
vn -0.6666 -0.6666 -0.3333
vn -0.6003 -0.6003 -0.5283
vn -0.5466 -0.5466 -0.6343
vn -0.8697 -0.3639 -0.3334
vn -0.7830 -0.3276 -0.5286
vn -0.7129 -0.2983 -0.6345
vn -0.7071 -0.7071 0.0000
vn 0.9802 0.1980 0.0000
vn 0.0000 0.9955 -0.0941
vn 0.0000 -0.9955 -0.0941
vn 0.9955 0.0000 -0.0941
vn -0.9955 0.0000 -0.0941
usemtl None
s off
f 189//1 193//1 190//1
f 1//2 327//2 194//2
f 329//3 328//3 2//3
f 199//4 203//4 200//4
f 5//1 318//1 204//1
f 175//3 319//3 6//3
f 209//5 213//5 210//5
f 9//4 325//4 214//4
f 181//3 324//3 10//3
f 219//2 223//2 220//2
f 13//5 321//5 224//5
f 326//3 322//3 14//3
f 47//3 259//3 42//3
f 82//3 261//3 77//3
f 235//3 262//3 125//3
f 62//3 265//3 232//3
f 230//3 266//3 267//3
f 42//3 268//3 227//3
f 67//3 264//3 62//3
f 32//3 268//3 266//3
f 229//3 261//3 270//3
f 22//3 272//3 238//3
f 67//3 270//3 269//3
f 47//3 127//3 128//3
f 230//3 271//3 22//3
f 235//3 129//3 82//3
f 52//3 265//3 127//3
f 92//3 272//3 262//3
f 294//3 150//3 146//3
f 153//3 147//3 148//3
f 159//3 152//3 161//3
f 157//3 131//3 136//3
f 160//3 148//3 151//3
f 138//3 133//3 139//3
f 136//3 150//3 154//3
f 155//3 132//3 133//3
f 298//3 135//3 142//3
f 138//3 144//3 296//3
f 291//3 135//3 300//3
f 157//3 142//3 130//3
f 296//3 147//3 297//3
f 159//3 146//3 149//3
f 161//3 132//3 293//3
f 160//3 134//3 291//3
f 174//5 7//5 310//5
f 165//6 200//6 203//6
f 163//7 220//7 223//7
f 178//1 15//1 164//1
f 168//8 210//8 213//8
f 180//2 11//2 173//2
f 179//4 3//4 316//4
f 171//9 190//9 193//9
f 102//3 110//3 103//3
f 106//3 98//3 102//3
f 106//3 108//3 98//3
f 98//3 110//3 102//3
f 108//3 99//3 98//3
f 108//3 111//3 99//3
f 111//3 113//3 99//3
f 105//3 104//3 107//3
f 106//3 105//3 107//3
f 108//3 106//3 107//3
f 107//3 109//3 108//3
f 101//3 109//3 107//3
f 100//3 109//3 101//3
f 105//3 112//3 104//3
f 189//1 191//1 193//1
f 1//2 192//2 327//2
f 2//3 188//3 329//3
f 188//3 186//3 329//3
f 199//4 201//4 203//4
f 5//1 202//1 318//1
f 6//3 198//3 175//3
f 198//3 196//3 175//3
f 209//5 211//5 213//5
f 9//4 212//4 325//4
f 10//3 208//3 181//3
f 208//3 206//3 181//3
f 219//2 221//2 223//2
f 13//5 222//5 321//5
f 14//3 218//3 326//3
f 218//3 216//3 326//3
f 47//3 128//3 259//3
f 82//3 129//3 261//3
f 235//3 92//3 262//3
f 62//3 264//3 265//3
f 230//3 32//3 266//3
f 42//3 259//3 268//3
f 67//3 269//3 264//3
f 32//3 227//3 268//3
f 229//3 77//3 261//3
f 22//3 271//3 272//3
f 67//3 229//3 270//3
f 47//3 52//3 127//3
f 230//3 267//3 271//3
f 235//3 125//3 129//3
f 52//3 232//3 265//3
f 92//3 238//3 272//3
f 294//3 154//3 150//3
f 153//3 297//3 147//3
f 159//3 149//3 152//3
f 157//3 130//3 131//3
f 160//3 153//3 148//3
f 138//3 155//3 133//3
f 136//3 131//3 150//3
f 155//3 293//3 132//3
f 298//3 300//3 135//3
f 138//3 139//3 144//3
f 291//3 134//3 135//3
f 157//3 298//3 142//3
f 296//3 144//3 147//3
f 159//3 294//3 146//3
f 161//3 152//3 132//3
f 160//3 151//3 134//3
f 174//5 8//5 7//5
f 203//10 167//10 165//10
f 165//11 166//11 200//11
f 223//12 162//12 163//12
f 163//13 308//13 220//13
f 178//1 16//1 15//1
f 213//14 169//14 168//14
f 168//15 313//15 210//15
f 180//2 12//2 11//2
f 179//4 4//4 3//4
f 193//16 172//16 171//16
f 171//17 170//17 190//17
s 1
f 33//18 240//19 312//20
f 195//21 183//21 241//22
f 73//23 226//24 315//25
f 48//26 237//27 53//28
f 205//29 176//29 233//30
f 28//31 240//19 33//18
f 225//32 177//32 234//33
f 93//34 231//35 307//36
f 63//37 239//38 68//39
f 43//40 236//41 48//26
f 215//42 182//42 72//43
f 88//44 231//35 93//34
f 23//45 87//46 28//31
f 68//39 226//24 73//23
f 19//47 23//45 24//48
f 20//49 24//48 25//50
f 21//51 25//50 26//52
f 17//53 21//51 26//52
f 24//48 28//31 29//54
f 25//50 29//54 30//55
f 26//52 30//55 31//56
f 17//53 26//52 31//56
f 28//31 34//57 29//54
f 29//54 35//58 30//55
f 30//55 36//59 31//56
f 17//53 31//56 36//59
f 33//18 39//60 34//57
f 34//57 40//61 35//58
f 35//58 41//62 36//59
f 17//53 36//59 41//62
f 39//60 43//40 44//63
f 40//61 44//63 45//64
f 41//62 45//64 46//65
f 17//53 41//62 46//65
f 44//63 48//26 49//66
f 45//64 49//66 50//67
f 46//65 50//67 51//68
f 17//53 46//65 51//68
f 48//26 54//69 49//66
f 49//66 55//70 50//67
f 50//67 56//71 51//68
f 17//53 51//68 56//71
f 53//28 59//72 54//69
f 54//69 60//73 55//70
f 55//70 61//74 56//71
f 17//53 56//71 61//74
f 59//72 63//37 64//75
f 60//73 64//75 65//76
f 61//74 65//76 66//77
f 17//53 61//74 66//77
f 64//75 68//39 69//78
f 65//76 69//78 70//79
f 66//77 70//79 71//80
f 17//53 66//77 71//80
f 68//39 74//81 69//78
f 69//78 75//82 70//79
f 70//79 76//83 71//80
f 17//53 71//80 76//83
f 73//23 79//84 74//81
f 74//81 80//85 75//82
f 75//82 81//86 76//83
f 17//53 76//83 81//86
f 79//84 83//87 84//88
f 80//85 84//88 85//89
f 81//86 85//89 86//90
f 17//53 81//86 86//90
f 84//88 88//44 89//91
f 85//89 89//91 90//92
f 86//90 90//92 91//93
f 17//53 86//90 91//93
f 88//44 94//94 89//91
f 89//91 95//95 90//92
f 90//92 96//96 91//93
f 17//53 91//93 96//96
f 93//34 19//47 94//94
f 94//94 20//49 95//95
f 95//95 21//51 96//96
f 17//53 96//96 21//51
f 83//87 27//97 88//44
f 53//28 237//27 309//98
f 114//2 145//33 126//33
f 260//19 137//5 117//5
f 123//4 305//30 273//30
f 258//38 140//24 120//24
f 263//46 292//19 260//19
f 121//97 303//35 115//35
f 273//30 290//38 258//38
f 116//43 301//41 118//41
f 275//27 242//41 243//27
f 286//4 243//27 254//4
f 115//35 304//2 114//2
f 282//30 254//4 250//30
f 283//38 250//30 251//38
f 288//24 251//38 256//24
f 244//1 288//24 256//24
f 277//22 244//1 245//22
f 284//97 245//22 252//97
f 285//35 252//97 253//35
f 248//2 285//35 253//35
f 281//33 248//2 249//33
f 287//46 249//33 255//46
f 278//19 255//46 246//19
f 279//5 246//19 247//5
f 289//43 247//5 257//43
f 274//41 257//43 242//41
f 126//33 295//46 263//46
f 124//27 158//4 123//4
f 122//22 299//97 121//97
f 120//24 156//1 119//1
f 118//41 143//27 124//27
f 119//1 141//22 122//22
f 117//5 302//43 116//43
f 314//5 38//99 312//20
f 38//99 33//18 312//20
f 240//19 228//5 207//20
f 228//5 323//5 207//20
f 240//19 207//20 312//20
f 83//87 78//100 195//21
f 78//100 317//1 195//21
f 185//1 37//1 183//21
f 37//1 241//22 183//21
f 83//87 195//21 241//22
f 317//1 78//100 315//25
f 78//100 73//23 315//25
f 226//24 37//1 187//25
f 37//1 185//1 187//25
f 226//24 187//25 315//25
f 48//26 236//41 237//27
f 63//37 58//101 205//29
f 58//101 311//4 205//29
f 320//4 57//4 176//29
f 57//4 233//30 176//29
f 63//37 205//29 233//30
f 28//31 87//46 240//19
f 23//45 18//102 225//32
f 18//102 306//2 225//32
f 184//2 97//2 177//32
f 97//2 234//33 177//32
f 23//45 225//32 234//33
f 306//2 18//102 307//36
f 18//102 93//34 307//36
f 231//35 97//2 217//36
f 97//2 184//2 217//36
f 231//35 217//36 307//36
f 63//37 233//30 239//38
f 43//40 72//43 236//41
f 43//40 38//99 215//42
f 38//99 314//5 215//42
f 323//5 228//5 182//42
f 228//5 72//43 182//42
f 43//40 215//42 72//43
f 88//44 27//97 231//35
f 23//45 234//33 87//46
f 68//39 239//38 226//24
f 19//47 18//102 23//45
f 20//49 19//47 24//48
f 21//51 20//49 25//50
f 24//48 23//45 28//31
f 25//50 24//48 29//54
f 26//52 25//50 30//55
f 28//31 33//18 34//57
f 29//54 34//57 35//58
f 30//55 35//58 36//59
f 33//18 38//99 39//60
f 34//57 39//60 40//61
f 35//58 40//61 41//62
f 39//60 38//99 43//40
f 40//61 39//60 44//63
f 41//62 40//61 45//64
f 44//63 43//40 48//26
f 45//64 44//63 49//66
f 46//65 45//64 50//67
f 48//26 53//28 54//69
f 49//66 54//69 55//70
f 50//67 55//70 56//71
f 53//28 58//101 59//72
f 54//69 59//72 60//73
f 55//70 60//73 61//74
f 59//72 58//101 63//37
f 60//73 59//72 64//75
f 61//74 60//73 65//76
f 64//75 63//37 68//39
f 65//76 64//75 69//78
f 66//77 65//76 70//79
f 68//39 73//23 74//81
f 69//78 74//81 75//82
f 70//79 75//82 76//83
f 73//23 78//100 79//84
f 74//81 79//84 80//85
f 75//82 80//85 81//86
f 79//84 78//100 83//87
f 80//85 79//84 84//88
f 81//86 80//85 85//89
f 84//88 83//87 88//44
f 85//89 84//88 89//91
f 86//90 85//89 90//92
f 88//44 93//34 94//94
f 89//91 94//94 95//95
f 90//92 95//95 96//96
f 93//34 18//102 19//47
f 94//94 19//47 20//49
f 95//95 20//49 21//51
f 83//87 241//22 27//97
f 311//4 58//101 309//98
f 58//101 53//28 309//98
f 237//27 57//4 197//98
f 57//4 320//4 197//98
f 237//27 197//98 309//98
f 114//2 304//2 145//33
f 260//19 292//19 137//5
f 123//4 158//4 305//30
f 258//38 290//38 140//24
f 263//46 295//46 292//19
f 121//97 299//97 303//35
f 273//30 305//30 290//38
f 116//43 302//43 301//41
f 275//27 274//41 242//41
f 286//4 275//27 243//27
f 115//35 303//35 304//2
f 282//30 286//4 254//4
f 283//38 282//30 250//30
f 288//24 283//38 251//38
f 244//1 276//1 288//24
f 277//22 276//1 244//1
f 284//97 277//22 245//22
f 285//35 284//97 252//97
f 248//2 280//2 285//35
f 281//33 280//2 248//2
f 287//46 281//33 249//33
f 278//19 287//46 255//46
f 279//5 278//19 246//19
f 289//43 279//5 247//5
f 274//41 289//43 257//43
f 126//33 145//33 295//46
f 124//27 143//27 158//4
f 122//22 141//22 299//97
f 120//24 140//24 156//1
f 118//41 301//41 143//27
f 119//1 156//1 141//22
f 117//5 137//5 302//43
