# Blender v2.79 (sub 0) OBJ File: 'missile.blend'
# www.blender.org
mtllib missile.mtl
o missile_CUNurbsCircle.001
v 0.297203 0.297202 1.958664
v 0.419016 -0.000000 1.958664
v -0.297202 -0.297202 1.958664
v -0.297202 0.297202 1.958664
v 0.000001 0.419015 1.958664
v -0.000001 0.000000 -2.670105
v 0.187173 0.187173 -2.404355
v 0.331827 0.331827 -2.049448
v 0.434003 0.434003 -1.650541
v 0.463296 0.463297 -1.252787
v 0.389303 0.389303 -0.901344
v 0.187320 0.187320 -0.230018
v 0.123391 0.123390 0.434042
v 0.151242 0.151242 1.048440
v 0.224604 0.224603 1.570779
v 0.263889 0.000000 -2.404355
v 0.467832 0.000000 -2.049448
v 0.611886 0.000000 -1.650541
v 0.653186 0.000000 -1.252788
v 0.548866 0.000000 -0.901345
v 0.264097 0.000000 -0.230018
v 0.173964 -0.000000 0.434042
v 0.213232 -0.000000 1.048440
v 0.316661 -0.000000 1.570779
v 0.187173 -0.187173 -2.404355
v 0.331827 -0.331827 -2.049448
v 0.434003 -0.434003 -1.650541
v 0.463296 -0.463297 -1.252787
v 0.389303 -0.389303 -0.901344
v 0.187320 -0.187320 -0.230018
v 0.123391 -0.123390 0.434042
v 0.151242 -0.151242 1.048440
v 0.224604 -0.224603 1.570779
v 0.297203 -0.297202 1.958664
v -0.000001 -0.263889 -2.404355
v -0.000001 -0.467832 -2.049448
v -0.000001 -0.611886 -1.650541
v -0.000000 -0.653186 -1.252787
v -0.000000 -0.548866 -0.901344
v -0.000000 -0.264097 -0.230018
v 0.000000 -0.173964 0.434042
v 0.000000 -0.213231 1.048440
v 0.000001 -0.316661 1.570779
v 0.000001 -0.419016 1.958664
v -0.187174 -0.187173 -2.404355
v -0.331828 -0.331827 -2.049448
v -0.434004 -0.434003 -1.650540
v -0.463297 -0.463297 -1.252787
v -0.389304 -0.389303 -0.901344
v -0.187320 -0.187320 -0.230018
v -0.123390 -0.123390 0.434042
v -0.151242 -0.151242 1.048440
v -0.224603 -0.224603 1.570780
v -0.263890 0.000000 -2.404355
v -0.467833 0.000000 -2.049448
v -0.611887 0.000000 -1.650540
v -0.653187 0.000000 -1.252787
v -0.548866 0.000000 -0.901344
v -0.264097 0.000000 -0.230018
v -0.173964 -0.000000 0.434042
v -0.213231 -0.000000 1.048440
v -0.316660 -0.000000 1.570779
v -0.419015 -0.000000 1.958664
v -0.187174 0.187173 -2.404355
v -0.331828 0.331827 -2.049448
v -0.434004 0.434003 -1.650540
v -0.463297 0.463297 -1.252787
v -0.389304 0.389303 -0.901344
v -0.187320 0.187320 -0.230018
v -0.123390 0.123390 0.434042
v -0.151242 0.151242 1.048440
v -0.224603 0.224603 1.570780
v -0.000001 0.263890 -2.404355
v -0.000001 0.467832 -2.049448
v -0.000001 0.611887 -1.650541
v -0.000000 0.653186 -1.252787
v -0.000000 0.548866 -0.901344
v -0.000000 0.264097 -0.230018
v 0.000000 0.173964 0.434042
v 0.000000 0.213231 1.048440
v 0.000001 0.316661 1.570779
v -0.212874 0.212875 1.958664
v 0.000001 0.300125 1.958664
v 0.212875 0.212875 1.958664
v 0.212875 -0.212875 1.958664
v 0.000001 -0.300125 1.958664
v 0.300126 -0.000000 1.958664
v -0.212874 -0.212875 1.958664
v -0.300124 -0.000000 1.958664
v -0.174309 0.174309 1.851673
v 0.000001 0.245753 1.851673
v 0.174310 0.174309 1.851673
v 0.174310 -0.174309 1.851673
v 0.000001 -0.245753 1.851673
v 0.245754 -0.000000 1.851673
v -0.174309 -0.174309 1.851673
v -0.245752 -0.000000 1.851673
v -0.297202 0.297202 1.958664
v 0.000001 0.419015 1.958664
v 0.297203 0.297202 1.958664
v 0.297203 -0.297202 1.958664
v 0.000001 -0.419016 1.958664
v 0.419016 -0.000000 1.958664
v -0.419015 -0.000000 1.958664
v -0.297202 -0.297202 1.958664
v -0.212874 0.212875 1.958664
v 0.000001 0.300125 1.958664
v 0.212875 0.212875 1.958664
v 0.212875 -0.212875 1.958664
v 0.000001 -0.300125 1.958664
v 0.300126 -0.000000 1.958664
v -0.300124 -0.000000 1.958664
v -0.212874 -0.212875 1.958664
vn -0.0000 0.0000 1.0000
vn 0.5696 0.5696 -0.5926
vn 0.8061 0.0000 -0.5918
vn 0.0000 0.0000 -1.0000
vn 0.9109 0.0000 -0.4127
vn 0.6438 0.6438 -0.4135
vn 0.9762 0.0000 -0.2170
vn 0.6902 0.6902 -0.2175
vn 0.9961 0.0000 0.0884
vn 0.7043 0.7043 0.0885
vn 0.6663 0.6663 0.3346
vn 0.6800 0.6800 0.2744
vn 0.9426 0.0000 0.3338
vn 0.7066 0.7066 0.0365
vn 0.9619 0.0000 0.2734
vn 0.9913 0.0000 -0.1314
vn 0.7009 0.7009 -0.1318
vn 0.9740 0.0000 -0.2264
vn 0.6886 0.6886 -0.2271
vn 0.9669 0.0000 -0.2551
vn 0.6836 0.6836 -0.2559
vn 0.5696 -0.5696 -0.5926
vn 0.6438 -0.6438 -0.4135
vn 0.6902 -0.6902 -0.2175
vn 0.6663 -0.6663 0.3346
vn 0.6800 -0.6800 0.2744
vn 0.7066 -0.7066 0.0365
vn 0.9993 0.0000 0.0364
vn 0.7009 -0.7009 -0.1318
vn 0.6886 -0.6886 -0.2271
vn 0.0000 -0.8061 -0.5918
vn 0.0000 -0.9109 -0.4127
vn 0.0000 -0.9762 -0.2170
vn 0.0000 -0.9961 0.0884
vn 0.7043 -0.7043 0.0885
vn 0.0000 -0.9426 0.3338
vn 0.0000 -0.9619 0.2734
vn 0.0000 -0.9913 -0.1314
vn 0.0000 -0.9740 -0.2264
vn 0.0000 -0.9669 -0.2551
vn 0.6836 -0.6836 -0.2559
vn -0.5696 -0.5696 -0.5926
vn -0.6438 -0.6438 -0.4135
vn -0.6902 -0.6902 -0.2175
vn -0.6663 -0.6663 0.3346
vn -0.6800 -0.6800 0.2744
vn -0.7066 -0.7066 0.0365
vn 0.0000 -0.9993 0.0364
vn -0.7009 -0.7009 -0.1318
vn -0.6886 -0.6886 -0.2271
vn -0.8061 0.0000 -0.5918
vn -0.9109 0.0000 -0.4127
vn -0.9762 0.0000 -0.2170
vn -0.9961 0.0000 0.0884
vn -0.7043 -0.7043 0.0885
vn -0.9426 0.0000 0.3338
vn -0.9619 0.0000 0.2734
vn -0.9913 0.0000 -0.1314
vn -0.9740 0.0000 -0.2264
vn -0.9669 0.0000 -0.2551
vn -0.6836 -0.6836 -0.2559
vn -0.5696 0.5696 -0.5926
vn -0.6438 0.6438 -0.4135
vn -0.6902 0.6902 -0.2175
vn -0.6663 0.6663 0.3346
vn -0.6800 0.6800 0.2744
vn -0.7066 0.7066 0.0365
vn -0.9993 0.0000 0.0364
vn -0.7009 0.7009 -0.1318
vn -0.6886 0.6886 -0.2271
vn 0.0000 0.8061 -0.5918
vn 0.0000 0.9109 -0.4127
vn 0.0000 0.9762 -0.2170
vn 0.0000 0.9961 0.0884
vn -0.7043 0.7043 0.0885
vn 0.0000 0.9426 0.3338
vn 0.0000 0.9619 0.2734
vn 0.0000 0.9913 -0.1314
vn 0.0000 0.9740 -0.2264
vn 0.0000 0.9669 -0.2551
vn -0.6836 0.6836 -0.2559
vn 0.0000 0.9993 0.0364
vn 0.0000 -0.8915 0.4530
vn -0.4280 -0.4280 0.7960
vn -0.6300 -0.6300 0.4541
vn 0.0000 0.8915 0.4530
vn 0.4280 0.4280 0.7960
vn 0.6300 0.6300 0.4541
vn -0.8915 0.0000 0.4530
vn -0.6045 0.0000 0.7966
vn 0.8915 0.0000 0.4530
vn 0.6045 0.0000 0.7966
vn 0.4280 -0.4280 0.7960
vn 0.0000 -0.6045 0.7966
vn -0.4280 0.4280 0.7960
vn 0.0000 0.6045 0.7966
vn -0.6300 0.6300 0.4541
vn 0.6300 -0.6300 0.4541
usemtl None
s off
f 99//1 108//1 100//1
f 63//1 106//1 98//1
f 103//1 108//1 111//1
f 63//1 113//1 112//1
f 44//1 113//1 105//1
f 99//1 106//1 107//1
f 44//1 85//1 110//1
f 103//1 85//1 34//1
f 93//1 96//1 94//1
f 95//1 96//1 93//1
f 95//1 97//1 96//1
f 92//1 97//1 95//1
f 92//1 90//1 97//1
f 91//1 90//1 92//1
f 99//1 107//1 108//1
f 63//1 112//1 106//1
f 103//1 100//1 108//1
f 63//1 105//1 113//1
f 44//1 110//1 113//1
f 99//1 98//1 106//1
f 44//1 34//1 85//1
f 103//1 111//1 85//1
s 1
f 7//2 16//3 6//4
f 17//5 7//2 8//6
f 18//7 8//6 9//8
f 19//9 9//8 10//10
f 11//11 19//9 10//10
f 12//12 20//13 11//11
f 13//14 21//15 12//12
f 23//16 13//14 14//17
f 24//18 14//17 15//19
f 2//20 15//19 1//21
f 16//3 25//22 6//4
f 17//5 25//22 16//3
f 18//7 26//23 17//5
f 19//9 27//24 18//7
f 29//25 19//9 20//13
f 30//26 20//13 21//15
f 31//27 21//15 22//28
f 23//16 31//27 22//28
f 24//18 32//29 23//16
f 2//20 33//30 24//18
f 25//22 35//31 6//4
f 36//32 25//22 26//23
f 37//33 26//23 27//24
f 38//34 27//24 28//35
f 29//25 38//34 28//35
f 30//26 39//36 29//25
f 31//27 40//37 30//26
f 42//38 31//27 32//29
f 43//39 32//29 33//30
f 102//40 33//30 101//41
f 35//31 45//42 6//4
f 36//32 45//42 35//31
f 37//33 46//43 36//32
f 38//34 47//44 37//33
f 49//45 38//34 39//36
f 50//46 39//36 40//37
f 51//47 40//37 41//48
f 42//38 51//47 41//48
f 43//39 52//49 42//38
f 102//40 53//50 43//39
f 45//42 54//51 6//4
f 55//52 45//42 46//43
f 56//53 46//43 47//44
f 57//54 47//44 48//55
f 49//45 57//54 48//55
f 50//46 58//56 49//45
f 51//47 59//57 50//46
f 61//58 51//47 52//49
f 62//59 52//49 53//50
f 104//60 53//50 3//61
f 54//51 64//62 6//4
f 55//52 64//62 54//51
f 56//53 65//63 55//52
f 57//54 66//64 56//53
f 68//65 57//54 58//56
f 69//66 58//56 59//57
f 70//67 59//57 60//68
f 61//58 70//67 60//68
f 62//59 71//69 61//58
f 104//60 72//70 62//59
f 64//62 73//71 6//4
f 74//72 64//62 65//63
f 75//73 65//63 66//64
f 76//74 66//64 67//75
f 68//65 76//74 67//75
f 69//66 77//76 68//65
f 70//67 78//77 69//66
f 80//78 70//67 71//69
f 81//79 71//69 72//70
f 5//80 72//70 4//81
f 73//71 7//2 6//4
f 74//72 7//2 73//71
f 75//73 8//6 74//72
f 76//74 9//8 75//73
f 11//11 76//74 77//76
f 12//12 77//76 78//77
f 13//14 78//77 79//82
f 80//78 13//14 79//82
f 81//79 14//17 80//78
f 5//80 15//19 81//79
f 83//83 92//84 84//85
f 86//86 96//87 88//88
f 87//89 92//84 95//90
f 89//91 96//87 97//92
f 83//83 90//93 91//94
f 86//86 93//95 94//96
f 87//89 93//95 109//97
f 89//91 90//93 82//98
f 17//5 16//3 7//2
f 18//7 17//5 8//6
f 19//9 18//7 9//8
f 11//11 20//13 19//9
f 12//12 21//15 20//13
f 13//14 22//28 21//15
f 23//16 22//28 13//14
f 24//18 23//16 14//17
f 2//20 24//18 15//19
f 17//5 26//23 25//22
f 18//7 27//24 26//23
f 19//9 28//35 27//24
f 29//25 28//35 19//9
f 30//26 29//25 20//13
f 31//27 30//26 21//15
f 23//16 32//29 31//27
f 24//18 33//30 32//29
f 2//20 101//41 33//30
f 36//32 35//31 25//22
f 37//33 36//32 26//23
f 38//34 37//33 27//24
f 29//25 39//36 38//34
f 30//26 40//37 39//36
f 31//27 41//48 40//37
f 42//38 41//48 31//27
f 43//39 42//38 32//29
f 102//40 43//39 33//30
f 36//32 46//43 45//42
f 37//33 47//44 46//43
f 38//34 48//55 47//44
f 49//45 48//55 38//34
f 50//46 49//45 39//36
f 51//47 50//46 40//37
f 42//38 52//49 51//47
f 43//39 53//50 52//49
f 102//40 3//61 53//50
f 55//52 54//51 45//42
f 56//53 55//52 46//43
f 57//54 56//53 47//44
f 49//45 58//56 57//54
f 50//46 59//57 58//56
f 51//47 60//68 59//57
f 61//58 60//68 51//47
f 62//59 61//58 52//49
f 104//60 62//59 53//50
f 55//52 65//63 64//62
f 56//53 66//64 65//63
f 57//54 67//75 66//64
f 68//65 67//75 57//54
f 69//66 68//65 58//56
f 70//67 69//66 59//57
f 61//58 71//69 70//67
f 62//59 72//70 71//69
f 104//60 4//81 72//70
f 74//72 73//71 64//62
f 75//73 74//72 65//63
f 76//74 75//73 66//64
f 68//65 77//76 76//74
f 69//66 78//77 77//76
f 70//67 79//82 78//77
f 80//78 79//82 70//67
f 81//79 80//78 71//69
f 5//80 81//79 72//70
f 74//72 8//6 7//2
f 75//73 9//8 8//6
f 76//74 10//10 9//8
f 11//11 10//10 76//74
f 12//12 11//11 77//76
f 13//14 12//12 78//77
f 80//78 14//17 13//14
f 81//79 15//19 14//17
f 5//80 1//21 15//19
f 83//83 91//94 92//84
f 86//86 94//96 96//87
f 87//89 84//85 92//84
f 89//91 88//88 96//87
f 83//83 82//98 90//93
f 86//86 109//97 93//95
f 87//89 95//90 93//95
f 89//91 97//92 90//93
