# Blender v2.79 (sub 0) OBJ File: 'fighter01v2.blend'
# www.blender.org
mtllib fighter01col1.mtl
o colmesh_Cube.001
v 4.048502 -2.012398 0.835802
v 4.048502 -1.168119 0.835802
v 4.048503 -2.012398 4.324539
v 4.048503 -1.168119 4.324539
v 0.900008 -1.140354 -1.270215
v 0.900008 -0.380127 -1.270215
v 0.900010 -1.140354 3.580172
v 0.900010 -0.380127 3.580172
v -4.048502 -2.012398 0.835802
v -4.048502 -1.168119 0.835802
v -4.048503 -2.012398 4.324539
v -4.048503 -1.168119 4.324539
v -0.900008 -1.140354 -1.270215
v -0.900008 -0.380127 -1.270215
v -0.900010 -1.140354 3.580172
v -0.900010 -0.380127 3.580172
vn 1.0000 0.0000 -0.0000
vn -0.2301 0.0000 0.9732
vn 0.5560 0.0000 -0.8312
vn -0.2669 -0.9637 0.0000
vn 0.2428 0.9701 -0.0000
vn -1.0000 0.0000 0.0000
vn 0.2301 0.0000 0.9732
vn -0.5560 0.0000 -0.8312
vn 0.2669 -0.9637 0.0000
vn -0.2428 0.9701 -0.0000
usemtl None
s off
f 1//1 2//1 4//1 3//1
f 3//2 4//2 8//2 7//2
f 5//3 6//3 2//3 1//3
f 3//4 7//4 5//4 1//4
f 8//5 4//5 2//5 6//5
f 7//6 8//6 6//6 5//6
f 9//6 11//6 12//6 10//6
f 11//7 15//7 16//7 12//7
f 13//8 9//8 10//8 14//8
f 11//9 9//9 13//9 15//9
f 16//10 14//10 10//10 12//10
f 15//1 13//1 14//1 16//1
