# Blender v2.79 (sub 0) OBJ File: 'fighter01v2.blend'
# www.blender.org
mtllib fighter01shield.mtl
o shield_Cube
v 1.562180 0.809084 1.526542
v 0.806962 0.206083 4.053085
v 0.547143 -1.689545 -3.137189
v 0.456795 -1.526401 3.660028
v 0.934678 1.335568 1.849777
v 2.864364 -2.147048 1.985437
v 4.668511 -1.899516 2.444332
v 2.936111 -1.286838 4.566760
v 3.290353 -0.374368 1.985437
v 3.218606 -1.234578 -0.595886
v 0.467339 1.335568 -0.353531
v 0.311559 2.252080 1.511951
v 0.311560 3.168592 4.001347
v 0.311560 2.252080 4.662408
v 0.623119 2.252080 3.087179
v 0.990802 -0.892078 -5.948822
v 0.623118 0.975641 -3.137189
v 1.486204 -0.883436 -3.137189
v 1.562179 0.449157 -3.137189
v 0.364762 -1.363890 -5.948821
v 1.041452 -0.069277 -5.948822
v 0.415412 0.281712 -5.948821
v 0.913589 -1.526401 1.713570
v 0.456794 -1.526401 -0.232886
v 0.366445 -2.622586 3.504530
v 0.732890 -2.074494 2.702564
v 0.366445 -2.074494 1.735213
v 0.366445 -2.074494 3.669916
v -1.562180 0.809084 1.526542
v -0.806962 0.206083 4.053085
v -0.547143 -1.689545 -3.137189
v -0.456795 -1.526401 3.660027
v -0.934678 1.335568 1.849777
v -2.864364 -2.147048 1.985437
v -4.668511 -1.899516 2.444332
v -2.936111 -1.286838 4.566760
v -3.290353 -0.374368 1.985437
v -3.218606 -1.234578 -0.595886
v -0.467339 1.335568 -0.353531
v -0.311559 2.252080 1.511951
v -0.311560 3.168592 4.001347
v -0.311560 2.252080 4.662408
v -0.623119 2.252080 3.087179
v -0.990802 -0.892078 -5.948822
v -0.623118 0.975641 -3.137188
v -1.486204 -0.883436 -3.137189
v -1.562179 0.449157 -3.137189
v -0.364762 -1.363890 -5.948821
v -1.041452 -0.069277 -5.948822
v -0.415412 0.281712 -5.948822
v -0.913589 -1.526401 1.713570
v -0.456794 -1.526401 -0.232886
v -0.366445 -2.622586 3.504530
v -0.732890 -2.074494 2.702564
v -0.366445 -2.074494 1.735213
v -0.366445 -2.074494 3.669915
v 1.491632 -1.681563 1.688023
v 1.562180 0.719102 -0.902662
v 1.247333 1.203947 1.607351
v 1.678871 -0.581139 4.181504
v 0.589511 -1.093280 3.954821
v 0.435410 1.282325 4.205416
v 0.000000 0.055333 4.053085
v 0.641279 -2.485563 3.304038
v 0.000000 1.335568 -0.353531
v 0.524556 -1.567187 -1.342519
v 1.919304 -0.840454 -1.433269
v 1.373376 0.658334 3.421449
v 2.152195 0.249979 1.641266
v 4.200439 -2.395489 2.329608
v 4.094163 -1.772476 4.292991
v 4.447283 -1.707151 0.366226
v 4.341007 -1.084139 2.329608
v 3.023548 -1.917694 0.049445
v 2.811677 -1.933233 3.921429
v 3.131169 -0.627379 3.921429
v 3.343040 -0.564528 0.049445
v 0.902749 1.053197 3.502258
v 0.701009 1.564696 2.320745
v 0.350504 1.564696 0.436074
v 0.311560 2.939464 4.801804
v 0.000000 3.168592 4.001347
v 0.545230 2.939464 3.772805
v 0.311560 2.939464 2.743806
v 0.000000 2.252080 1.511951
v 0.545229 2.252080 1.905758
v 0.000000 2.252080 4.662408
v 0.545230 2.252080 4.268600
v 1.431997 0.139585 -4.908691
v 0.501547 -1.689704 -4.908691
v 1.362353 -1.016364 -4.908691
v 0.000000 -1.689545 -3.137189
v 1.055479 -1.488018 -3.137189
v 0.571191 0.622196 -4.908691
v 0.000000 0.975641 -3.137188
v 1.169442 0.844020 -3.137189
v 1.701157 -0.147233 -3.137189
v 0.584173 1.245586 -1.372680
v 0.817843 1.335568 0.197296
v 0.675775 0.110464 -6.117433
v 0.612462 -1.123738 -6.117433
v 0.977594 -0.446225 -6.117433
v 0.000000 -1.241691 -6.117433
v 0.000000 0.198212 -6.117433
v 0.778065 -1.663424 2.054333
v 0.389033 -1.663424 3.465971
v 0.389032 -1.663424 0.642696
v 0.000000 -1.526401 3.660028
v 0.799390 -1.526401 3.173413
v 0.799390 -1.526401 0.253728
v 0.000000 -1.526401 -0.232886
v 0.366445 -2.485563 3.830042
v 0.000000 -2.622586 3.504530
v 0.366445 -2.485563 2.778035
v 0.000000 -2.074494 1.735213
v 0.000000 -2.074494 3.669915
v 0.641279 -2.074494 3.428078
v 0.641279 -2.074494 1.977051
v -1.491632 -1.681563 1.688023
v -1.562180 0.719102 -0.902662
v -1.247333 1.203947 1.607351
v -1.678871 -0.581139 4.181504
v -0.589511 -1.093280 3.954821
v -0.435410 1.282325 4.205416
v -0.641279 -2.485563 3.304038
v -0.524556 -1.567187 -1.342519
v -1.919304 -0.840454 -1.433269
v -1.373376 0.658334 3.421449
v -2.152195 0.249979 1.641266
v -4.200439 -2.395488 2.329608
v -4.094163 -1.772476 4.292991
v -4.447282 -1.707151 0.366226
v -4.341007 -1.084139 2.329608
v -3.023548 -1.917694 0.049445
v -2.811677 -1.933233 3.921429
v -3.131169 -0.627379 3.921429
v -3.343040 -0.564528 0.049445
v -0.902749 1.053197 3.502258
v -0.701009 1.564696 2.320745
v -0.350504 1.564696 0.436075
v -0.311560 2.939464 4.801804
v -0.545230 2.939464 3.772805
v -0.311560 2.939464 2.743806
v -0.545229 2.252080 1.905758
v -0.545230 2.252080 4.268601
v -1.431997 0.139585 -4.908691
v -0.501547 -1.689704 -4.908691
v -1.362353 -1.016364 -4.908691
v -1.055479 -1.488018 -3.137189
v -0.571191 0.622196 -4.908691
v -1.169442 0.844020 -3.137189
v -1.701157 -0.147233 -3.137189
v -0.584173 1.245586 -1.372680
v -0.817843 1.335568 0.197296
v -0.675775 0.110464 -6.117433
v -0.612462 -1.123738 -6.117433
v -0.977594 -0.446225 -6.117433
v -0.778065 -1.663424 2.054333
v -0.389033 -1.663424 3.465971
v -0.389032 -1.663424 0.642696
v -0.799390 -1.526401 3.173413
v -0.799390 -1.526401 0.253728
v -0.366445 -2.485563 3.830042
v -0.366445 -2.485563 2.778035
v -0.641279 -2.074494 3.428077
v -0.641279 -2.074494 1.977051
v 1.262947 -1.515363 -0.841194
v 1.153470 1.193742 -0.847198
v 1.297975 -1.449835 3.689149
v 1.198891 1.034575 2.966093
v 2.014929 0.069104 -0.870854
v 2.016209 0.035976 3.546444
v 3.772903 -2.119043 3.686621
v 3.992622 -2.088910 0.794137
v 3.930042 -1.152806 3.686621
v 4.149761 -1.101646 0.794137
v 0.634610 1.494103 3.734248
v 0.613382 1.564696 0.907242
v 0.484649 2.761254 4.402434
v 0.484648 2.761254 2.787666
v 1.520266 -0.389646 -4.950844
v 1.046025 0.480668 -4.950844
v 0.944725 -1.490819 -4.950844
v 0.680807 -1.663424 3.113061
v 0.680806 -1.663424 0.995605
v 0.570026 -2.378990 3.596847
v 0.570026 -2.378990 2.699354
v -1.262947 -1.515363 -0.841194
v -1.153470 1.193742 -0.847198
v -1.297975 -1.449835 3.689149
v -1.198891 1.034575 2.966093
v 0.000000 -1.567187 -1.342519
v 0.000000 1.245586 -1.372680
v 0.000000 -1.130968 3.954821
v 0.000000 1.244637 4.205416
v -2.014929 0.069104 -0.870854
v -2.016209 0.035976 3.546444
v -3.772903 -2.119043 3.686621
v -3.992622 -2.088910 0.794137
v -3.930042 -1.152806 3.686621
v -4.149761 -1.101646 0.794137
v -0.634610 1.494103 3.734248
v 0.000000 -0.425227 -6.876182
v 0.000000 1.564696 0.436075
v -0.613382 1.564696 0.907242
v -0.484649 2.761254 4.402434
v 0.000000 2.939465 4.801804
v 0.000000 2.939465 2.743806
v -0.484648 2.761254 2.787666
v -1.520266 -0.389646 -4.950844
v -1.046025 0.480668 -4.950844
v 0.000000 0.601320 -4.950844
v 0.000000 -1.659154 -4.950844
v -0.944725 -1.490819 -4.950844
v -0.680807 -1.663424 3.113061
v -0.680806 -1.663424 0.995605
v -0.000000 -1.663424 3.465971
v 0.000000 -1.663424 0.642696
v -0.570026 -2.378990 3.596847
v -0.570026 -2.378990 2.699354
v 0.000000 -2.485563 3.830042
v -0.000000 -2.485563 2.778035
vn 0.7457 0.6658 0.0238
vn 0.8085 0.5347 -0.2458
vn 0.7857 0.6163 -0.0536
vn 0.4903 0.8681 -0.0771
vn 0.6096 0.7920 0.0322
vn 0.6236 0.7605 0.1810
vn 0.6142 0.6324 0.4719
vn 0.5850 0.8108 0.0190
vn -0.0035 -0.3534 0.9355
vn 0.0091 0.1378 0.9904
vn 0.2480 0.1639 0.9548
vn 0.4531 0.7587 0.4681
vn 0.7653 0.5105 0.3920
vn 0.5404 -0.1231 0.8323
vn 0.0000 -0.1019 0.9948
vn 0.5854 -0.8101 -0.0334
vn 0.0493 -0.9983 0.0299
vn 0.1889 -0.9814 0.0320
vn 0.0000 -0.9995 0.0326
vn 0.1794 -0.9712 -0.1570
vn 0.1183 -0.7766 0.6188
vn -0.1185 -0.8181 0.5626
vn 0.0000 -0.3547 0.9349
vn 0.0000 -0.7161 0.6979
vn 0.4492 -0.3125 0.8370
vn 0.3118 -0.9341 0.1735
vn 0.9183 0.3952 0.0216
vn 0.5708 0.8202 0.0372
vn 0.3434 0.9339 -0.0989
vn 0.6863 0.7006 -0.1952
vn -0.2329 -0.9722 -0.0255
vn -0.2520 -0.9677 -0.0070
vn 0.0319 -0.9101 -0.4130
vn 0.2490 -0.9342 -0.2555
vn 0.3443 -0.9386 0.0226
vn 0.1372 -0.9467 0.2912
vn -0.2683 -0.8448 0.4630
vn 0.9719 -0.2104 0.1053
vn 0.8376 -0.2210 -0.4996
vn 0.7501 0.6430 -0.1543
vn 0.7786 0.6227 0.0771
vn 0.6708 0.6498 0.3574
vn 0.6135 -0.2152 0.7598
vn 0.4347 0.7491 0.4999
vn -0.0146 -0.0150 0.9998
vn 0.6237 0.7022 -0.3432
vn 0.5199 0.8532 0.0414
vn 0.5411 -0.1561 -0.8263
vn 0.1428 -0.9746 -0.1722
vn 0.8086 -0.3777 -0.4510
vn 0.0000 0.9829 -0.1842
vn 0.2202 0.9150 -0.3380
vn 0.0976 0.9845 -0.1456
vn 0.1048 0.9869 -0.1227
vn 0.0000 0.9928 -0.1196
vn 0.3465 0.8047 -0.4821
vn 0.0000 0.9108 -0.4127
vn 0.0000 0.8583 -0.5130
vn 0.3704 0.8741 -0.3140
vn 0.8578 0.4568 -0.2357
vn 0.4029 0.9113 0.0849
vn 0.0000 0.5192 0.8546
vn 0.4708 0.4529 0.7571
vn 0.9384 0.2101 0.2742
vn 0.8863 0.4629 0.0092
vn 0.0000 0.9412 -0.3378
vn 0.0000 0.9988 0.0493
vn 0.4751 -0.2374 0.8473
vn 0.0000 -0.2694 0.9630
vn 0.9505 -0.0214 0.3101
vn 0.0000 -0.3079 0.9514
vn 0.9911 0.1328 -0.0090
vn 0.9558 0.1638 0.2440
vn 0.8646 0.4709 -0.1749
vn 0.7338 -0.4055 -0.5450
vn 0.9698 -0.0448 -0.2398
vn 0.8701 -0.4553 -0.1883
vn 0.5790 -0.7912 -0.1968
vn 0.4479 -0.6133 -0.6506
vn 0.7366 -0.0169 -0.6761
vn 0.0000 0.9847 -0.1741
vn 0.1178 0.9779 -0.1723
vn 0.4910 0.8567 -0.1578
vn 0.1229 0.9574 -0.2611
vn 0.9902 -0.0069 -0.1394
vn 0.8926 -0.4330 -0.1255
vn 0.8553 0.4999 -0.1362
vn 0.8497 0.4574 -0.2622
vn 0.4744 0.8322 -0.2868
vn 0.1618 -0.8549 -0.4928
vn 0.0000 -0.9854 -0.1703
vn 0.0000 -0.7857 -0.6185
vn 0.7309 0.3891 -0.5606
vn 0.4115 0.6592 -0.6294
vn 0.1226 0.8865 -0.4462
vn 0.0000 0.9653 -0.2610
vn 0.0000 0.8488 -0.5288
vn 0.0476 -0.9960 -0.0759
vn 0.2029 -0.9789 -0.0215
vn 0.8851 -0.4651 -0.0128
vn 0.5111 -0.8423 -0.1708
vn 0.0302 -0.9988 -0.0389
vn 0.0000 -0.9986 0.0524
vn 0.1183 -0.9676 -0.2231
vn 0.0000 -0.9982 -0.0592
vn 0.2892 -0.9454 0.1499
vn 0.8217 -0.1947 0.5356
vn 0.3731 -0.3634 0.8536
vn 0.0000 -0.3898 0.9209
vn 0.0000 -0.9944 0.1058
vn 0.1805 -0.9464 -0.2677
vn 0.7976 -0.5994 0.0674
vn 0.7008 -0.6674 -0.2519
vn 0.9766 -0.2147 -0.0138
vn 0.8918 -0.3372 0.3015
vn 0.8758 0.1531 0.4578
vn 0.6270 -0.7404 -0.2420
vn 0.1613 -0.9192 -0.3593
vn 0.0000 -0.9670 -0.2547
vn 0.0000 -0.9331 -0.3594
vn 0.3324 0.3682 0.8683
vn 0.0000 -0.2452 0.9695
vn 0.0000 0.4041 0.9147
vn -0.7457 0.6658 0.0238
vn -0.8085 0.5347 -0.2458
vn -0.5850 0.8108 0.0190
vn -0.6142 0.6324 0.4719
vn -0.6236 0.7605 0.1810
vn -0.6096 0.7920 0.0322
vn -0.4903 0.8681 -0.0771
vn -0.7857 0.6163 -0.0536
vn -0.0091 0.1378 0.9904
vn 0.0035 -0.3534 0.9355
vn -0.2480 0.1639 0.9548
vn -0.5404 -0.1231 0.8323
vn -0.7653 0.5105 0.3920
vn -0.4531 0.7587 0.4681
vn -0.0493 -0.9983 0.0299
vn -0.5854 -0.8101 -0.0334
vn -0.1889 -0.9814 0.0320
vn -0.1794 -0.9712 -0.1570
vn -0.1183 -0.7766 0.6188
vn 0.1185 -0.8181 0.5626
vn -0.3118 -0.9341 0.1735
vn -0.4492 -0.3125 0.8370
vn -0.9183 0.3952 0.0216
vn -0.5708 0.8202 0.0372
vn -0.6863 0.7006 -0.1952
vn -0.3434 0.9339 -0.0989
vn 0.2329 -0.9722 -0.0255
vn 0.2683 -0.8448 0.4630
vn -0.1372 -0.9467 0.2912
vn -0.3443 -0.9386 0.0226
vn -0.2490 -0.9342 -0.2555
vn -0.0319 -0.9101 -0.4130
vn 0.2520 -0.9677 -0.0070
vn -0.9719 -0.2104 0.1053
vn -0.6135 -0.2152 0.7598
vn -0.6708 0.6498 0.3574
vn -0.7786 0.6227 0.0771
vn -0.7501 0.6430 -0.1543
vn -0.8376 -0.2210 -0.4996
vn -0.4347 0.7491 0.4999
vn 0.0146 -0.0150 0.9998
vn -0.6237 0.7022 -0.3432
vn -0.5199 0.8532 0.0414
vn -0.5411 -0.1561 -0.8263
vn -0.1428 -0.9746 -0.1722
vn -0.8086 -0.3777 -0.4510
vn -0.2202 0.9150 -0.3380
vn -0.0976 0.9845 -0.1456
vn -0.1048 0.9869 -0.1227
vn -0.3465 0.8047 -0.4821
vn -0.8578 0.4568 -0.2357
vn -0.3704 0.8742 -0.3140
vn -0.4029 0.9113 0.0849
vn -0.8863 0.4629 0.0092
vn -0.9384 0.2101 0.2742
vn -0.4708 0.4529 0.7571
vn -0.4751 -0.2374 0.8473
vn -0.9505 -0.0214 0.3101
vn -0.9911 0.1328 -0.0090
vn -0.9558 0.1638 0.2440
vn -0.8646 0.4709 -0.1749
vn -0.7338 -0.4055 -0.5450
vn -0.9698 -0.0448 -0.2398
vn -0.7366 -0.0169 -0.6761
vn -0.4479 -0.6133 -0.6506
vn -0.5790 -0.7912 -0.1968
vn -0.8701 -0.4553 -0.1883
vn -0.1178 0.9779 -0.1723
vn -0.1229 0.9574 -0.2611
vn -0.4910 0.8567 -0.1578
vn -0.9902 -0.0069 -0.1394
vn -0.8926 -0.4330 -0.1255
vn -0.8553 0.4999 -0.1362
vn -0.4744 0.8322 -0.2868
vn -0.8497 0.4574 -0.2622
vn -0.1618 -0.8549 -0.4928
vn -0.7309 0.3891 -0.5606
vn -0.4115 0.6592 -0.6294
vn -0.1226 0.8865 -0.4462
vn -0.0476 -0.9960 -0.0759
vn -0.2029 -0.9789 -0.0215
vn -0.5111 -0.8423 -0.1708
vn -0.8851 -0.4651 -0.0128
vn -0.0302 -0.9988 -0.0389
vn -0.1183 -0.9676 -0.2231
vn -0.2892 -0.9454 0.1499
vn -0.8217 -0.1947 0.5356
vn -0.7976 -0.5994 0.0674
vn -0.1805 -0.9464 -0.2677
vn 0.0000 -0.9608 -0.2773
vn -0.3731 -0.3634 0.8536
vn -0.7008 -0.6674 -0.2519
vn -0.9766 -0.2147 -0.0138
vn -0.6270 -0.7404 -0.2420
vn -0.8758 0.1531 0.4578
vn -0.8918 -0.3372 0.3015
vn -0.1613 -0.9192 -0.3593
vn -0.3324 0.3682 0.8683
vn 0.0000 0.0537 -0.9985
usemtl Material.001
s 1
f 1//1 171//2 58//3
f 1//1 168//4 59//5
f 1//1 170//6 68//7
f 68//7 69//8 1//1
f 61//9 60//10 2//11
f 2//11 172//12 68//7
f 68//7 78//13 2//11
f 78//13 62//14 2//11
f 62//14 63//15 2//11
f 63//15 61//9 2//11
f 93//16 66//17 3//18
f 66//17 92//19 3//18
f 92//19 90//20 3//18
f 90//20 93//16 3//18
f 4//21 169//22 61//9
f 4//21 194//23 108//24
f 108//24 106//25 4//21
f 106//25 109//26 4//21
f 79//27 78//13 5//28
f 5//28 170//6 59//5
f 59//5 99//29 5//28
f 5//28 178//30 79//27
f 6//31 169//22 57//32
f 57//32 74//33 6//31
f 6//31 174//34 70//35
f 6//31 173//36 75//37
f 7//38 174//34 72//39
f 7//38 176//40 73//41
f 7//38 175//42 71//43
f 7//38 173//36 70//35
f 76//44 60//10 8//45
f 60//10 75//37 8//45
f 75//37 71//43 8//45
f 8//45 175//42 76//44
f 77//46 69//8 9//47
f 9//47 172//12 76//44
f 9//47 175//42 73//41
f 9//47 176//40 77//46
f 10//48 167//49 67//50
f 10//48 171//2 77//46
f 77//46 72//39 10//48
f 72//39 74//33 10//48
f 65//51 80//52 11//53
f 80//52 99//29 11//53
f 11//53 168//4 98//54
f 11//53 193//55 65//51
f 12//56 178//30 80//52
f 12//56 204//57 85//58
f 85//58 84//59 12//56
f 84//59 86//60 12//56
f 13//61 207//62 81//63
f 13//61 179//64 83//65
f 83//65 84//59 13//61
f 13//61 208//66 82//67
f 14//68 195//69 62//14
f 62//14 88//70 14//68
f 14//68 179//64 81//63
f 81//63 87//71 14//68
f 15//72 177//73 79//27
f 79//27 86//60 15//72
f 15//72 180//74 83//65
f 83//65 88//70 15//72
f 16//75 181//76 91//77
f 16//75 183//78 101//79
f 101//79 102//80 16//75
f 95//81 98//54 17//82
f 98//54 96//83 17//82
f 96//83 94//84 17//82
f 94//84 95//81 17//82
f 97//85 67//50 18//86
f 67//50 93//16 18//86
f 93//16 91//77 18//86
f 18//86 181//76 97//85
f 96//83 58//3 19//87
f 19//87 171//2 97//85
f 97//85 89//88 19//87
f 19//87 182//89 96//83
f 20//90 183//78 90//20
f 20//90 213//91 103//92
f 103//92 101//79 20//90
f 21//93 182//89 89//88
f 21//93 181//76 102//80
f 102//80 100//94 21//93
f 22//95 212//96 94//84
f 22//95 182//89 100//94
f 100//94 104//97 22//95
f 110//98 57//32 23//99
f 57//32 109//26 23//99
f 109//26 105//100 23//99
f 23//99 185//101 110//98
f 24//102 192//103 66//17
f 24//102 167//49 110//98
f 110//98 107//104 24//102
f 107//104 111//105 24//102
f 25//106 186//107 112//108
f 25//106 221//109 113//110
f 113//110 114//111 25//106
f 114//111 64//112 25//106
f 118//113 105//100 26//114
f 26//114 184//115 117//116
f 117//116 64//112 26//114
f 26//114 187//117 118//113
f 27//118 218//119 107//104
f 27//118 185//101 118//113
f 118//113 114//111 27//118
f 114//111 115//120 27//118
f 117//116 106//25 28//121
f 28//121 217//122 116//123
f 28//121 221//109 112//108
f 28//121 186//107 117//116
f 29//124 196//125 129//126
f 129//126 128//127 29//124
f 29//124 191//128 121//129
f 29//124 189//130 120//131
f 122//132 123//133 30//134
f 123//133 63//15 30//134
f 63//15 124//135 30//134
f 124//135 138//136 30//134
f 138//136 128//127 30//134
f 30//134 197//137 122//132
f 126//138 149//139 31//140
f 149//139 147//141 31//140
f 147//141 92//19 31//140
f 92//19 126//138 31//140
f 32//142 190//143 161//144
f 161//144 159//145 32//142
f 159//145 108//24 32//142
f 32//142 194//23 123//133
f 138//136 139//146 33//147
f 33//147 205//148 154//149
f 154//149 121//129 33//147
f 33//147 191//128 138//136
f 34//150 190//143 135//151
f 34//150 198//152 130//153
f 34//150 199//154 134//155
f 134//155 119//156 34//150
f 35//157 199//154 130//153
f 35//157 198//152 131//158
f 35//157 200//159 133//160
f 35//157 201//161 132//162
f 122//132 136//163 36//164
f 36//164 200//159 131//158
f 131//158 135//151 36//164
f 135//151 122//132 36//164
f 129//126 137//165 37//166
f 37//166 201//161 133//160
f 37//166 200//159 136//163
f 37//166 197//137 129//126
f 38//167 188//168 134//155
f 134//155 132//162 38//167
f 132//162 137//165 38//167
f 38//167 196//125 127//169
f 140//170 65//51 39//171
f 39//171 193//55 153//172
f 39//171 189//130 154//149
f 154//149 140//170 39//171
f 40//173 205//148 144//174
f 144//174 143//175 40//173
f 143//175 85//58 40//173
f 40//173 204//57 140//170
f 41//176 207//62 82//67
f 82//67 143//175 41//176
f 143//175 142//177 41//176
f 41//176 206//178 141//179
f 42//180 195//69 87//71
f 87//71 141//179 42//180
f 42//180 206//178 145//181
f 145//181 124//135 42//180
f 43//182 202//183 145//181
f 145//181 142//177 43//182
f 43//182 209//184 144//174
f 144//174 139//146 43//182
f 44//185 210//186 157//187
f 157//187 156//188 44//185
f 44//185 214//189 148//190
f 153//172 95//81 45//191
f 95//81 150//192 45//191
f 150//192 151//193 45//191
f 151//193 153//172 45//191
f 127//169 152//194 46//195
f 46//195 210//186 148//190
f 148//190 149//139 46//195
f 149//139 127//169 46//195
f 120//131 151//193 47//196
f 47//196 211//197 146//198
f 146//198 152//194 47//196
f 47//196 196//125 120//131
f 48//199 214//189 156//188
f 156//188 103//92 48//199
f 48//199 213//91 147//141
f 49//200 211//197 155//201
f 155//201 157//187 49//200
f 49//200 210//186 146//198
f 50//202 212//96 104//97
f 104//97 155//201 50//202
f 50//202 211//197 150//192
f 119//156 162//203 51//204
f 51//204 216//205 158//206
f 158//206 161//144 51//204
f 161//144 119//156 51//204
f 52//207 192//103 111//105
f 111//105 160//208 52//207
f 160//208 162//203 52//207
f 52//207 188//168 126//138
f 53//209 219//210 125//211
f 125//211 164//212 53//209
f 53//209 222//213 113//110
f 113//110 163//214 53//209
f 158//206 166//215 54//216
f 54//216 220//217 125//211
f 125//211 165//218 54//216
f 54//216 215//219 158//206
f 55//220 218//119 115//120
f 55//220 222//213 164//212
f 164//212 166//215 55//220
f 55//220 216//205 160//208
f 159//145 165//218 56//221
f 56//221 219//210 163//214
f 163//214 116//123 56//221
f 56//221 217//122 159//145
f 1//1 69//8 171//2
f 1//1 58//3 168//4
f 1//1 59//5 170//6
f 68//7 172//12 69//8
f 61//9 169//22 60//10
f 2//11 60//10 172//12
f 68//7 170//6 78//13
f 78//13 177//73 62//14
f 62//14 195//69 63//15
f 63//15 194//23 61//9
f 93//16 167//49 66//17
f 66//17 192//103 92//19
f 92//19 213//91 90//20
f 90//20 183//78 93//16
f 4//21 109//26 169//22
f 4//21 61//9 194//23
f 108//24 217//122 106//25
f 106//25 184//115 109//26
f 79//27 177//73 78//13
f 5//28 78//13 170//6
f 59//5 168//4 99//29
f 5//28 99//29 178//30
f 6//31 75//37 169//22
f 57//32 167//49 74//33
f 6//31 74//33 174//34
f 6//31 70//35 173//36
f 7//38 70//35 174//34
f 7//38 72//39 176//40
f 7//38 73//41 175//42
f 7//38 71//43 173//36
f 76//44 172//12 60//10
f 60//10 169//22 75//37
f 75//37 173//36 71//43
f 8//45 71//43 175//42
f 77//46 171//2 69//8
f 9//47 69//8 172//12
f 9//47 76//44 175//42
f 9//47 73//41 176//40
f 10//48 74//33 167//49
f 10//48 67//50 171//2
f 77//46 176//40 72//39
f 72//39 174//34 74//33
f 65//51 204//57 80//52
f 80//52 178//30 99//29
f 11//53 99//29 168//4
f 11//53 98//54 193//55
f 12//56 86//60 178//30
f 12//56 80//52 204//57
f 85//58 208//66 84//59
f 84//59 180//74 86//60
f 13//61 82//67 207//62
f 13//61 81//63 179//64
f 83//65 180//74 84//59
f 13//61 84//59 208//66
f 14//68 87//71 195//69
f 62//14 177//73 88//70
f 14//68 88//70 179//64
f 81//63 207//62 87//71
f 15//72 88//70 177//73
f 79//27 178//30 86//60
f 15//72 86//60 180//74
f 83//65 179//64 88//70
f 16//75 102//80 181//76
f 16//75 91//77 183//78
f 101//79 203//222 102//80
f 95//81 193//55 98//54
f 98//54 168//4 96//83
f 96//83 182//89 94//84
f 94//84 212//96 95//81
f 97//85 171//2 67//50
f 67//50 167//49 93//16
f 93//16 183//78 91//77
f 18//86 91//77 181//76
f 96//83 168//4 58//3
f 19//87 58//3 171//2
f 97//85 181//76 89//88
f 19//87 89//88 182//89
f 20//90 101//79 183//78
f 20//90 90//20 213//91
f 103//92 203//222 101//79
f 21//93 100//94 182//89
f 21//93 89//88 181//76
f 102//80 203//222 100//94
f 22//95 104//97 212//96
f 22//95 94//84 182//89
f 100//94 203//222 104//97
f 110//98 167//49 57//32
f 57//32 169//22 109//26
f 109//26 184//115 105//100
f 23//99 105//100 185//101
f 24//102 111//105 192//103
f 24//102 66//17 167//49
f 110//98 185//101 107//104
f 107//104 218//119 111//105
f 25//106 64//112 186//107
f 25//106 112//108 221//109
f 113//110 222//213 114//111
f 114//111 187//117 64//112
f 118//113 185//101 105//100
f 26//114 105//100 184//115
f 117//116 186//107 64//112
f 26//114 64//112 187//117
f 27//118 115//120 218//119
f 27//118 107//104 185//101
f 118//113 187//117 114//111
f 114//111 222//213 115//120
f 117//116 184//115 106//25
f 28//121 106//25 217//122
f 28//121 116//123 221//109
f 28//121 112//108 186//107
f 29//124 120//131 196//125
f 129//126 197//137 128//127
f 29//124 128//127 191//128
f 29//124 121//129 189//130
f 122//132 190//143 123//133
f 123//133 194//23 63//15
f 63//15 195//69 124//135
f 124//135 202//183 138//136
f 138//136 191//128 128//127
f 30//134 128//127 197//137
f 126//138 188//168 149//139
f 149//139 214//189 147//141
f 147//141 213//91 92//19
f 92//19 192//103 126//138
f 32//142 123//133 190//143
f 161//144 215//219 159//145
f 159//145 217//122 108//24
f 32//142 108//24 194//23
f 138//136 202//183 139//146
f 33//147 139//146 205//148
f 154//149 189//130 121//129
f 33//147 121//129 191//128
f 34//150 119//156 190//143
f 34//150 135//151 198//152
f 34//150 130//153 199//154
f 134//155 188//168 119//156
f 35//157 132//162 199//154
f 35//157 130//153 198//152
f 35//157 131//158 200//159
f 35//157 133//160 201//161
f 122//132 197//137 136//163
f 36//164 136//163 200//159
f 131//158 198//152 135//151
f 135//151 190//143 122//132
f 129//126 196//125 137//165
f 37//166 137//165 201//161
f 37//166 133//160 200//159
f 37//166 136//163 197//137
f 38//167 127//169 188//168
f 134//155 199//154 132//162
f 132//162 201//161 137//165
f 38//167 137//165 196//125
f 140//170 204//57 65//51
f 39//171 65//51 193//55
f 39//171 153//172 189//130
f 154//149 205//148 140//170
f 40//173 140//170 205//148
f 144//174 209//184 143//175
f 143//175 208//66 85//58
f 40//173 85//58 204//57
f 41//176 141//179 207//62
f 82//67 208//66 143//175
f 143//175 209//184 142//177
f 41//176 142//177 206//178
f 42//180 124//135 195//69
f 87//71 207//62 141//179
f 42//180 141//179 206//178
f 145//181 202//183 124//135
f 43//182 139//146 202//183
f 145//181 206//178 142//177
f 43//182 142//177 209//184
f 144//174 205//148 139//146
f 44//185 148//190 210//186
f 157//187 203//222 156//188
f 44//185 156//188 214//189
f 153//172 193//55 95//81
f 95//81 212//96 150//192
f 150//192 211//197 151//193
f 151//193 189//130 153//172
f 127//169 196//125 152//194
f 46//195 152//194 210//186
f 148//190 214//189 149//139
f 149//139 188//168 127//169
f 120//131 189//130 151//193
f 47//196 151//193 211//197
f 146//198 210//186 152//194
f 47//196 152//194 196//125
f 48//199 147//141 214//189
f 156//188 203//222 103//92
f 48//199 103//92 213//91
f 49//200 146//198 211//197
f 155//201 203//222 157//187
f 49//200 157//187 210//186
f 50//202 150//192 212//96
f 104//97 203//222 155//201
f 50//202 155//201 211//197
f 119//156 188//168 162//203
f 51//204 162//203 216//205
f 158//206 215//219 161//144
f 161//144 190//143 119//156
f 52//207 126//138 192//103
f 111//105 218//119 160//208
f 160//208 216//205 162//203
f 52//207 162//203 188//168
f 53//209 163//214 219//210
f 125//211 220//217 164//212
f 53//209 164//212 222//213
f 113//110 221//109 163//214
f 158//206 216//205 166//215
f 54//216 166//215 220//217
f 125//211 219//210 165//218
f 54//216 165//218 215//219
f 55//220 160//208 218//119
f 55//220 115//120 222//213
f 164//212 220//217 166//215
f 55//220 166//215 216//205
f 159//145 215//219 165//218
f 56//221 165//218 219//210
f 163//214 221//109 116//123
f 56//221 116//123 217//122
