# Blender v2.79 (sub 0) OBJ File: 'fighter01v2.blend'
# www.blender.org
mtllib fighter01col2.mtl
o colmesh.001_Cube.002
v 0.272226 2.941298 4.728621
v 0.272225 0.685377 3.161103
v 0.272225 2.973288 3.112502
v 0.272224 0.685377 -1.094202
v 0.304215 -1.193429 2.954214
v 0.304216 -2.545166 3.981435
v 0.304214 -1.161438 0.317551
v 0.304215 -2.541662 2.608657
v -0.272222 2.941298 4.728621
v -0.272223 0.685377 3.161103
v -0.272223 2.973288 3.112502
v -0.272224 0.685377 -1.094202
v -0.304213 -1.193429 2.954214
v -0.304213 -2.545166 3.981435
v -0.304214 -1.161438 0.317551
v -0.304213 -2.541662 2.608657
vn 1.0000 0.0000 -0.0000
vn 0.0000 -0.5706 0.8212
vn -1.0000 0.0000 0.0000
vn -0.0000 0.8785 -0.4778
vn 0.0000 0.9998 0.0198
vn 0.0000 -1.0000 -0.0026
vn 0.0000 0.6050 0.7962
vn -0.0000 -0.8566 -0.5160
vn 0.0000 0.9999 0.0121
vn 0.0000 -1.0000 0.0000
usemtl None
s off
f 4//1 3//1 1//1 2//1
f 8//1 7//1 5//1 6//1
f 10//2 2//2 1//2 9//2
f 12//3 10//3 9//3 11//3
f 4//4 12//4 11//4 3//4
f 1//5 3//5 11//5 9//5
f 14//6 16//6 8//6 6//6
f 14//7 6//7 5//7 13//7
f 16//3 14//3 13//3 15//3
f 8//8 16//8 15//8 7//8
f 7//9 15//9 13//9 5//9
f 12//10 4//10 2//10 10//10
