# Blender v2.79 (sub 0) OBJ File: 'Epee.blend'
# www.blender.org
mtllib Epeeshield.mtl
o shield_Cube
v 0.000000 -3.000000 4.500000
v 0.000000 1.506230 4.500000
v -2.459491 -0.746885 4.499999
v 2.459491 -0.746885 4.500000
v -0.000001 -0.746885 10.000000
v -0.000000 -5.000000 -6.897259
v 0.000001 0.000000 -9.113339
v -0.000000 3.253115 -2.840590
v 3.459491 -0.373443 -2.840588
v -0.000000 -4.000000 -2.840589
v -3.459491 -0.373443 -2.840590
v -0.000000 5.500000 -6.010884
v 0.000002 5.500000 -8.226965
v -5.500000 -1.333333 -7.045036
v -5.500001 2.000000 -5.567649
v -5.499999 2.000000 -8.522423
v 5.500000 -1.333333 -7.045035
v 5.500001 2.000000 -8.522423
v 5.500000 2.000000 -5.567648
v 0.000000 -3.250000 -0.085147
v -1.844618 -2.436721 4.500000
v -0.000000 -2.436721 8.625000
v 1.844618 -2.436721 4.500000
v -1.844618 0.942951 4.499999
v 0.000001 1.942951 -0.085148
v 1.844619 0.942951 4.500000
v -0.000001 0.942951 8.625000
v -2.439236 -0.653524 -0.085148
v -2.114873 -0.746885 8.624999
v 2.439237 -0.653524 -0.085147
v 2.114872 -0.746885 8.625000
v 0.000000 -3.750000 -8.559319
v -3.875000 -4.083333 -6.934203
v -0.000000 -4.750000 -4.775051
v 3.875000 -4.083333 -6.934202
v 0.000002 3.875000 -8.891747
v -0.000001 4.688279 -4.553458
v -3.874999 0.500000 -8.965611
v -4.739874 0.406639 -4.442649
v 3.875001 0.500000 -8.965611
v 4.739872 0.406639 -4.442648
v -2.594619 2.346476 -2.840590
v 2.594618 2.346476 -2.840589
v 2.594618 -3.093361 -2.840588
v -2.594618 -3.093361 -2.840590
v -4.250001 4.625000 -5.900076
v -4.249999 4.625000 -8.300829
v 4.250002 4.625000 -8.300829
v 4.250000 4.625000 -5.900075
v 0.000001 5.750000 -7.229757
v -5.625000 0.416667 -8.005347
v -5.625000 0.416667 -6.158614
v 5.625000 0.416667 -6.158612
v 5.625001 0.416667 -8.005347
v -1.486497 -1.998616 7.555556
v -1.829427 -2.600881 -0.085148
v 1.829428 -2.600881 -0.085147
v 1.486497 -1.998616 7.555556
v -1.486497 0.504845 7.555555
v -1.829427 1.293832 -0.085149
v 1.829428 1.293832 -0.085147
v 1.486497 0.504845 7.555556
v -4.115139 -3.428271 -4.889004
v -3.906250 -2.708333 -8.420826
v 3.906250 -2.708333 -8.420826
v 4.115139 -3.428271 -4.889001
v -3.586156 3.617869 -4.525756
v -2.999999 3.166667 -8.752224
v 3.000002 3.166667 -8.752224
v 3.586154 3.617869 -4.525755
v -5.100000 4.386667 -7.216457
v 5.100002 4.386667 -7.216457
vt 0.688714 0.157155
vt 0.603108 0.000211
vt 0.618532 0.157155
vt 0.619110 0.287994
vt 0.688714 0.287994
vt 0.758318 0.287994
vt 0.758896 0.157155
vt 0.774320 0.000211
vt 0.688714 0.000211
vt 0.388672 0.185690
vt 0.545616 0.100084
vt 0.545616 0.185690
vt 0.545616 0.271296
vt 0.388672 0.255873
vt 0.257833 0.255295
vt 0.257833 0.185690
vt 0.257833 0.116086
vt 0.388672 0.115508
vt 0.157155 0.878425
vt 0.000211 0.942719
vt 0.000211 0.878425
vt 0.000211 0.814132
vt 0.157155 0.814132
vt 0.287994 0.875761
vt 0.157155 0.942719
vt 0.157155 0.628409
vt 0.287994 0.561452
vt 0.157155 0.564116
vt 0.157155 0.499822
vt 0.000211 0.499822
vt 0.000211 0.564116
vt 0.000211 0.628409
vt 0.631643 0.831812
vt 0.546037 0.896105
vt 0.631643 0.896105
vt 0.631643 0.960399
vt 0.717249 0.896105
vt 0.688714 0.545616
vt 0.831391 0.482380
vt 0.688714 0.482380
vt 0.688714 0.421822
vt 0.546037 0.482379
vt 0.688714 0.688714
vt 0.546037 0.831391
vt 0.546037 0.688714
vt 0.546037 0.546037
vt 0.688714 0.546037
vt 0.831391 0.546037
vt 0.831391 0.688714
vt 0.831391 0.831391
vt 0.688714 0.831391
vt 0.179206 0.086973
vt 0.179206 0.185690
vt 0.179206 0.284408
vt 0.130328 0.185690
vt 0.366621 0.656944
vt 0.366621 0.553459
vt 0.421822 0.678346
vt 0.412336 0.531199
vt 0.366621 0.449974
vt 0.287994 0.487360
vt 0.688714 0.366621
vt 0.589996 0.366621
vt 0.787432 0.366621
vt 0.366621 0.971254
vt 0.366621 0.867769
vt 0.287994 0.801670
vt 0.366621 0.764284
vt 0.412336 0.845509
vt 0.421822 0.992656
vt 0.088740 0.185690
vt 0.130328 0.322728
vt 0.088740 0.349768
vt 0.053959 0.185690
vt 0.088740 0.021612
vt 0.130328 0.048653
vt 0.025504 0.349768
vt 0.025504 0.185690
vt 0.000211 0.328367
vt 0.000211 0.185690
vt 0.000211 0.043014
vt 0.025504 0.021612
vt 0.461302 0.845223
vt 0.513999 0.845223
vt 0.486596 0.895160
vt 0.529807 0.964120
vt 0.482379 0.999790
vt 0.444439 0.800042
vt 0.415498 0.723331
vt 0.457087 0.700168
vt 0.491867 0.693035
vt 0.528754 0.800042
vt 0.520323 0.700169
vt 0.545616 0.714436
vt 0.545616 0.857113
vt 0.513999 0.530913
vt 0.461302 0.530913
vt 0.486596 0.580850
vt 0.482379 0.685480
vt 0.529807 0.649811
vt 0.528754 0.485732
vt 0.545616 0.400126
vt 0.520323 0.385859
vt 0.491868 0.378725
vt 0.545616 0.542803
vt 0.444439 0.485732
vt 0.457087 0.385859
vt 0.415498 0.409021
vt 0.287994 0.949853
vt 0.287994 0.635543
vt 0.546037 0.831812
vt 0.546037 0.960399
vt 0.717249 0.960399
vt 0.717249 0.831812
vt 0.831391 0.545616
vt 0.820401 0.421822
vt 0.557027 0.421822
vt 0.546037 0.545616
vt 0.053959 0.360469
vt 0.053959 0.010911
vn 0.0000 -0.9949 0.1009
vn -0.6378 -0.7358 0.2275
vn -0.6890 -0.7183 0.0963
vn -0.6968 -0.6950 0.1770
vn 0.0000 -0.9866 0.1631
vn 0.6968 -0.6950 0.1770
vn 0.6890 -0.7183 0.0963
vn 0.6378 -0.7358 0.2275
vn 0.0000 -0.8586 0.5126
vn 0.0000 0.9926 0.1213
vn -0.6378 0.7358 0.2275
vn 0.0000 0.8586 0.5126
vn 0.6378 0.7358 0.2275
vn 0.6911 0.7142 0.1106
vn 0.6971 0.6687 0.2586
vn 0.0000 0.9608 0.2773
vn -0.6971 0.6687 0.2586
vn -0.6911 0.7142 0.1106
vn -0.9976 -0.0022 0.0692
vn -0.8459 0.0000 0.5333
vn -0.9825 -0.0086 0.1858
vn 0.9825 -0.0086 0.1858
vn 0.9976 -0.0022 0.0692
vn 0.8459 0.0000 0.5333
vn 0.0000 0.0000 1.0000
vn 0.0000 -0.5386 -0.8426
vn 0.5402 -0.8141 -0.2129
vn 0.0000 -0.9692 -0.2460
vn 0.0000 -0.9644 0.2645
vn -0.5402 -0.8141 -0.2129
vn 0.0000 -0.0510 -0.9987
vn -0.4385 -0.4347 -0.7866
vn -0.2217 -0.0624 -0.9731
vn -0.0878 0.1701 -0.9815
vn 0.0000 0.2426 -0.9701
vn 0.0878 0.1701 -0.9815
vn 0.2217 -0.0624 -0.9731
vn 0.4385 -0.4347 -0.7866
vn -0.5729 0.5729 0.5862
vn 0.0000 0.8334 0.5526
vn 0.5729 0.5729 0.5862
vn 0.0000 0.8238 0.5668
vn 0.6107 -0.6699 0.4223
vn 0.8610 -0.0149 0.5083
vn 0.6907 -0.6173 0.3766
vn 0.8065 0.0034 0.5911
vn 0.0000 -0.9485 0.3167
vn -0.6107 -0.6699 0.4223
vn -0.8610 -0.0149 0.5083
vn -0.8065 0.0034 0.5911
vn -0.6907 -0.6173 0.3766
vn 0.0000 0.9321 0.3620
vn 0.4637 0.5688 0.6793
vn 0.4771 0.7789 0.4070
vn 0.0000 0.9998 -0.0212
vn -0.4771 0.7789 0.4070
vn -0.4637 0.5688 0.6793
vn 0.3774 0.6888 -0.6189
vn 0.0000 0.7697 -0.6384
vn -0.3774 0.6888 -0.6189
vn -0.9740 -0.0634 0.2174
vn -0.8791 -0.1098 -0.4637
vn -0.9377 -0.3310 -0.1053
vn -0.9029 0.1844 0.3883
vn -0.7674 0.6402 -0.0345
vn -0.7782 0.1066 -0.6189
vn 0.8791 -0.1098 -0.4637
vn 0.9740 -0.0634 0.2174
vn 0.9377 -0.3310 -0.1053
vn 0.7782 0.1066 -0.6189
vn 0.7674 0.6402 -0.0345
vn 0.9029 0.1844 0.3883
usemtl Material
s 1
f 1/1/1 55/2/2 21/3/3
f 1/1/1 56/4/4 20/5/5
f 1/1/1 57/6/6 23/7/7
f 1/1/1 58/8/8 22/9/9
f 2/10/10 59/11/11 27/12/12
f 2/10/10 62/13/13 26/14/14
f 2/10/10 61/15/15 25/16/16
f 2/10/10 60/17/17 24/18/18
f 3/19/19 55/20/2 29/21/20
f 3/19/19 59/22/11 24/23/18
f 24/23/18 28/24/21 3/19/19
f 28/24/21 21/25/3 3/19/19
f 23/26/7 30/27/22 4/28/23
f 30/27/22 26/29/14 4/28/23
f 4/28/23 62/30/13 31/31/24
f 4/28/23 58/32/8 23/26/7
f 27/33/12 29/34/20 5/35/25
f 29/34/20 22/36/9 5/35/25
f 22/36/9 31/37/24 5/35/25
f 31/37/24 27/33/12 5/35/25
f 32/38/26 35/39/27 6/40/28
f 35/39/27 34/41/29 6/40/28
f 34/41/29 33/42/30 6/40/28
f 33/42/30 32/38/26 6/40/28
f 7/43/31 64/44/32 38/45/33
f 7/43/31 68/46/34 36/47/35
f 7/43/31 69/48/36 40/49/37
f 7/43/31 65/50/38 32/51/26
f 42/52/39 25/16/16 8/53/40
f 25/16/16 43/54/41 8/53/40
f 43/54/41 37/55/42 8/53/40
f 37/55/42 42/52/39 8/53/40
f 30/27/22 44/56/43 9/57/44
f 9/57/44 66/58/45 41/59/46
f 41/59/46 43/60/41 9/57/44
f 9/57/44 61/61/15 30/27/22
f 10/62/47 56/4/4 45/63/48
f 45/63/48 34/41/29 10/62/47
f 34/41/29 44/64/43 10/62/47
f 10/62/47 57/6/6 20/5/5
f 45/65/48 28/24/21 11/66/49
f 11/66/49 60/67/17 42/68/39
f 42/68/39 39/69/50 11/66/49
f 11/66/49 63/70/51 45/65/48
f 12/71/52 70/72/53 49/73/54
f 49/73/54 50/74/55 12/71/52
f 50/74/55 46/75/56 12/71/52
f 12/71/52 67/76/57 37/55/42
f 50/74/55 48/77/58 13/78/59
f 13/78/59 69/79/36 36/80/35
f 13/78/59 68/81/34 47/82/60
f 47/82/60 50/74/55 13/78/59
f 52/83/61 51/84/62 14/85/63
f 14/85/63 64/86/32 33/87/30
f 14/85/63 63/70/51 52/83/61
f 15/88/64 67/89/57 46/90/56
f 15/88/64 71/91/65 52/83/61
f 52/83/61 39/69/50 15/88/64
f 16/92/66 71/91/65 47/93/60
f 16/92/66 68/94/34 38/95/33
f 38/95/33 51/84/62 16/92/66
f 54/96/67 53/97/68 17/98/69
f 17/98/69 66/58/45 35/99/27
f 17/98/69 65/100/38 54/96/67
f 18/101/70 69/102/36 48/103/58
f 18/101/70 72/104/71 54/96/67
f 54/96/67 40/105/37 18/101/70
f 19/106/72 72/104/71 49/107/54
f 19/106/72 70/108/53 41/59/46
f 41/59/46 53/97/68 19/106/72
f 1/1/1 22/9/9 55/2/2
f 1/1/1 21/3/3 56/4/4
f 1/1/1 20/5/5 57/6/6
f 1/1/1 23/7/7 58/8/8
f 2/10/10 24/18/18 59/11/11
f 2/10/10 27/12/12 62/13/13
f 2/10/10 26/14/14 61/15/15
f 2/10/10 25/16/16 60/17/17
f 3/19/19 21/25/3 55/20/2
f 3/19/19 29/21/20 59/22/11
f 24/23/18 60/67/17 28/24/21
f 28/24/21 56/109/4 21/25/3
f 23/26/7 57/110/6 30/27/22
f 30/27/22 61/61/15 26/29/14
f 4/28/23 26/29/14 62/30/13
f 4/28/23 31/31/24 58/32/8
f 27/33/12 59/111/11 29/34/20
f 29/34/20 55/112/2 22/36/9
f 22/36/9 58/113/8 31/37/24
f 31/37/24 62/114/13 27/33/12
f 32/38/26 65/115/38 35/39/27
f 35/39/27 66/116/45 34/41/29
f 34/41/29 63/117/51 33/42/30
f 33/42/30 64/118/32 32/38/26
f 7/43/31 32/51/26 64/44/32
f 7/43/31 38/45/33 68/46/34
f 7/43/31 36/47/35 69/48/36
f 7/43/31 40/49/37 65/50/38
f 42/52/39 60/17/17 25/16/16
f 25/16/16 61/15/15 43/54/41
f 43/54/41 70/72/53 37/55/42
f 37/55/42 67/76/57 42/52/39
f 30/27/22 57/110/6 44/56/43
f 9/57/44 44/56/43 66/58/45
f 41/59/46 70/108/53 43/60/41
f 9/57/44 43/60/41 61/61/15
f 10/62/47 20/5/5 56/4/4
f 45/63/48 63/117/51 34/41/29
f 34/41/29 66/116/45 44/64/43
f 10/62/47 44/64/43 57/6/6
f 45/65/48 56/109/4 28/24/21
f 11/66/49 28/24/21 60/67/17
f 42/68/39 67/89/57 39/69/50
f 11/66/49 39/69/50 63/70/51
f 12/71/52 37/55/42 70/72/53
f 49/73/54 72/119/71 50/74/55
f 50/74/55 71/120/65 46/75/56
f 12/71/52 46/75/56 67/76/57
f 50/74/55 72/119/71 48/77/58
f 13/78/59 48/77/58 69/79/36
f 13/78/59 36/80/35 68/81/34
f 47/82/60 71/120/65 50/74/55
f 52/83/61 71/91/65 51/84/62
f 14/85/63 51/84/62 64/86/32
f 14/85/63 33/87/30 63/70/51
f 15/88/64 39/69/50 67/89/57
f 15/88/64 46/90/56 71/91/65
f 52/83/61 63/70/51 39/69/50
f 16/92/66 51/84/62 71/91/65
f 16/92/66 47/93/60 68/94/34
f 38/95/33 64/86/32 51/84/62
f 54/96/67 72/104/71 53/97/68
f 17/98/69 53/97/68 66/58/45
f 17/98/69 35/99/27 65/100/38
f 18/101/70 40/105/37 69/102/36
f 18/101/70 48/103/58 72/104/71
f 54/96/67 65/100/38 40/105/37
f 19/106/72 53/97/68 72/104/71
f 19/106/72 49/107/54 70/108/53
f 41/59/46 66/58/45 53/97/68
