# Blender v2.79 (sub 0) OBJ File: ''
# www.blender.org
mtllib skyboxu.mtl
o Cube.right_Cube
v 4.404543 4.404543 -4.404542
v 4.404544 -4.404543 -4.404541
v 4.404542 -4.404543 4.404543
v 4.404541 4.404543 4.404544
vt 0.000100 0.999900
vt 0.000100 0.000100
vt 0.999900 0.000100
vt 0.999900 0.999900
vn -1.0000 -0.0000 -0.0000
g Cube.right_Cube_Cube.right_Cube_Right
usemtl Right
s 1
f 1/1/1 2/2/1 3/3/1 4/4/1
o Cube.back_Cube.001
v -4.404543 4.404543 -4.404543
v -4.404540 -4.404543 -4.404546
v 4.404544 -4.404543 -4.404541
v 4.404543 4.404543 -4.404542
vt 0.000100 0.999900
vt 0.000100 0.000100
vt 0.999900 0.000100
vt 0.999899 0.999900
vn -0.0000 -0.0000 1.0000
g Cube.back_Cube.001_Cube.back_Cube.001_Back
usemtl Back
s 1
f 5/5/2 6/6/2 7/7/2 8/8/2
o Cube.left_Cube.002
v -4.404543 4.404543 4.404542
v -4.404545 -4.404543 4.404541
v -4.404540 -4.404543 -4.404546
v -4.404543 4.404543 -4.404543
vt 0.000100 0.999900
vt 0.000100 0.000100
vt 0.999900 0.000100
vt 0.999900 0.999900
vn 1.0000 0.0000 0.0000
g Cube.left_Cube.002_Cube.left_Cube.002_Left
usemtl Left
s 1
f 9/9/3 10/10/3 11/11/3 12/12/3
o Cube.front_Cube.003
v -4.404545 -4.404543 4.404541
v -4.404543 4.404543 4.404542
v 4.404541 4.404543 4.404544
v 4.404542 -4.404543 4.404543
vt 0.999900 0.000100
vt 0.999899 0.999900
vt 0.000100 0.999899
vt 0.000100 0.000100
vn 0.0000 0.0000 -1.0000
g Cube.front_Cube.003_Cube.front_Cube.003_Front
usemtl Front
s 1
f 13/13/4 14/14/4 15/15/4 16/16/4
o Cube.up_Cube.004
v -4.404543 4.404543 4.404542
v -4.404543 4.404543 -4.404543
v 4.404543 4.404543 -4.404542
v 4.404541 4.404543 4.404544
vt 0.999900 0.999900
vt 0.000100 0.999900
vt 0.000100 0.000100
vt 0.999900 0.000100
vn 0.0000 -1.0000 0.0000
g Cube.up_Cube.004_Cube.up_Cube.004_Top
usemtl Top
s 1
f 17/17/5 18/18/5 19/19/5 20/20/5
o Cube.down_Cube.005
v -4.404545 -4.404543 4.404541
v 4.404542 -4.404543 4.404543
v 4.404544 -4.404543 -4.404541
v -4.404540 -4.404543 -4.404546
vt 0.999900 0.000100
vt 0.999899 0.999900
vt 0.000100 0.999899
vt 0.000101 0.000100
vn 0.0000 1.0000 -0.0000
g Cube.down_Cube.005_Cube.down_Cube.005_Bottom
usemtl Bottom
s 1
f 21/21/6 22/22/6 23/23/6 24/24/6
